  0
SECTION
  2
BLOCKS
  0
ENDSEC
  0
SECTION
  2
ENTITIES
  0
LINE
  8
0
 10
488.8
 20
529.7
 11
483.4
 21
529.7
  0
LINE
  8
0
 10
483.4
 20
529.7
 11
483.4
 21
542.8
  0
LINE
  8
0
 10
483.4
 20
542.8
 11
488.8
 21
542.8
  0
LINE
  8
0
 10
488.8
 20
542.8
 11
488.8
 21
555.1
  0
LINE
  8
0
 10
488.8
 20
555.1
 11
483.4
 21
555.1
  0
LINE
  8
0
 10
483.4
 20
555.1
 11
483.4
 21
568.2
  0
LINE
  8
0
 10
483.4
 20
568.2
 11
488.8
 21
568.2
  0
LINE
  8
0
 10
488.8
 20
568.2
 11
488.8
 21
580.5
  0
LINE
  8
0
 10
488.8
 20
580.5
 11
483.4
 21
580.5
  0
LINE
  8
0
 10
483.4
 20
580.5
 11
483.4
 21
593.2
  0
LINE
  8
0
 10
483.4
 20
593.2
 11
0.199997
 21
593.2
  0
LINE
  8
0
 10
0.199997
 20
593.2
 11
0.199997
 21
580.9
  0
LINE
  8
0
 10
0.199997
 20
580.9
 11
5.59999
 21
580.9
  0
LINE
  8
0
 10
5.59999
 20
580.9
 11
5.59999
 21
567.8
  0
LINE
  8
0
 10
5.59999
 20
567.8
 11
0.199997
 21
567.8
  0
LINE
  8
0
 10
0.199997
 20
567.8
 11
0.199997
 21
555.5
  0
LINE
  8
0
 10
0.199997
 20
555.5
 11
5.59999
 21
555.5
  0
LINE
  8
0
 10
5.59999
 20
555.5
 11
5.59999
 21
542.4
  0
LINE
  8
0
 10
5.59999
 20
542.4
 11
0.199997
 21
542.4
  0
LINE
  8
0
 10
0.199997
 20
542.4
 11
0.199997
 21
530.1
  0
LINE
  8
0
 10
0.199997
 20
530.1
 11
5.59999
 21
530.1
  0
LINE
  8
0
 10
5.59999
 20
530.1
 11
5.59999
 21
517.4
  0
LINE
  8
0
 10
5.59999
 20
517.4
 11
488.8
 21
517.4
  0
LINE
  8
0
 10
488.8
 20
517.4
 11
488.8
 21
529.7
  0
LINE
  8
0
 10
79.7667
 20
443.9
 11
85.5667
 21
443.9
  0
LINE
  8
0
 10
85.5667
 20
443.9
 11
85.5667
 21
431.2
  0
LINE
  8
0
 10
85.5667
 20
431.2
 11
162.433
 21
431.2
  0
LINE
  8
0
 10
162.433
 20
431.2
 11
162.433
 21
443.9
  0
LINE
  8
0
 10
162.433
 20
443.9
 11
168.233
 21
443.9
  0
LINE
  8
0
 10
168.233
 20
443.9
 11
168.233
 21
431.2
  0
LINE
  8
0
 10
168.233
 20
431.2
 11
247.8
 21
431.2
  0
LINE
  8
0
 10
247.8
 20
431.2
 11
247.8
 21
443.5
  0
LINE
  8
0
 10
247.8
 20
443.5
 11
242.4
 21
443.5
  0
LINE
  8
0
 10
242.4
 20
443.5
 11
242.4
 21
456.6
  0
LINE
  8
0
 10
242.4
 20
456.6
 11
247.8
 21
456.6
  0
LINE
  8
0
 10
247.8
 20
456.6
 11
247.8
 21
468.9
  0
LINE
  8
0
 10
247.8
 20
468.9
 11
242.4
 21
468.9
  0
LINE
  8
0
 10
242.4
 20
468.9
 11
242.4
 21
482
  0
LINE
  8
0
 10
242.4
 20
482
 11
247.8
 21
482
  0
LINE
  8
0
 10
247.8
 20
482
 11
247.8
 21
494.3
  0
LINE
  8
0
 10
247.8
 20
494.3
 11
242.4
 21
494.3
  0
LINE
  8
0
 10
242.4
 20
494.3
 11
242.4
 21
507
  0
LINE
  8
0
 10
242.4
 20
507
 11
0.199997
 21
507
  0
LINE
  8
0
 10
0.199997
 20
507
 11
0.199997
 21
494.7
  0
LINE
  8
0
 10
0.199997
 20
494.7
 11
5.59999
 21
494.7
  0
LINE
  8
0
 10
5.59999
 20
494.7
 11
5.59999
 21
481.6
  0
LINE
  8
0
 10
5.59999
 20
481.6
 11
0.199997
 21
481.6
  0
LINE
  8
0
 10
0.199997
 20
481.6
 11
0.199997
 21
469.3
  0
LINE
  8
0
 10
0.199997
 20
469.3
 11
5.59999
 21
469.3
  0
LINE
  8
0
 10
5.59999
 20
469.3
 11
5.59999
 21
456.2
  0
LINE
  8
0
 10
5.59999
 20
456.2
 11
0.199997
 21
456.2
  0
LINE
  8
0
 10
0.199997
 20
456.2
 11
0.199997
 21
443.9
  0
LINE
  8
0
 10
0.199997
 20
443.9
 11
5.59999
 21
443.9
  0
LINE
  8
0
 10
5.59999
 20
443.9
 11
5.59999
 21
431.2
  0
LINE
  8
0
 10
5.59999
 20
431.2
 11
79.7667
 21
431.2
  0
LINE
  8
0
 10
79.7667
 20
431.2
 11
79.7667
 21
443.9
  0
LINE
  8
0
 10
162.433
 20
481.6
 11
162.433
 21
494.7
  0
LINE
  8
0
 10
162.433
 20
494.7
 11
168.233
 21
494.7
  0
LINE
  8
0
 10
168.233
 20
494.7
 11
168.233
 21
481.6
  0
LINE
  8
0
 10
168.233
 20
481.6
 11
162.433
 21
481.6
  0
LINE
  8
0
 10
79.7667
 20
481.6
 11
79.7667
 21
494.7
  0
LINE
  8
0
 10
79.7667
 20
494.7
 11
85.5667
 21
494.7
  0
LINE
  8
0
 10
85.5667
 20
494.7
 11
85.5667
 21
481.6
  0
LINE
  8
0
 10
85.5667
 20
481.6
 11
79.7667
 21
481.6
  0
LINE
  8
0
 10
162.433
 20
456.2
 11
162.433
 21
469.3
  0
LINE
  8
0
 10
162.433
 20
469.3
 11
168.233
 21
469.3
  0
LINE
  8
0
 10
168.233
 20
469.3
 11
168.233
 21
456.2
  0
LINE
  8
0
 10
168.233
 20
456.2
 11
162.433
 21
456.2
  0
LINE
  8
0
 10
79.7667
 20
456.2
 11
79.7667
 21
469.3
  0
LINE
  8
0
 10
79.7667
 20
469.3
 11
85.5667
 21
469.3
  0
LINE
  8
0
 10
85.5667
 20
469.3
 11
85.5667
 21
456.2
  0
LINE
  8
0
 10
85.5667
 20
456.2
 11
79.7667
 21
456.2
  0
LINE
  8
0
 10
79.7667
 20
357.7
 11
85.5667
 21
357.7
  0
LINE
  8
0
 10
85.5667
 20
357.7
 11
85.5667
 21
345
  0
LINE
  8
0
 10
85.5667
 20
345
 11
162.433
 21
345
  0
LINE
  8
0
 10
162.433
 20
345
 11
162.433
 21
357.7
  0
LINE
  8
0
 10
162.433
 20
357.7
 11
168.233
 21
357.7
  0
LINE
  8
0
 10
168.233
 20
357.7
 11
168.233
 21
345
  0
LINE
  8
0
 10
168.233
 20
345
 11
247.8
 21
345
  0
LINE
  8
0
 10
247.8
 20
345
 11
247.8
 21
357.3
  0
LINE
  8
0
 10
247.8
 20
357.3
 11
242.4
 21
357.3
  0
LINE
  8
0
 10
242.4
 20
357.3
 11
242.4
 21
370.4
  0
LINE
  8
0
 10
242.4
 20
370.4
 11
247.8
 21
370.4
  0
LINE
  8
0
 10
247.8
 20
370.4
 11
247.8
 21
382.7
  0
LINE
  8
0
 10
247.8
 20
382.7
 11
242.4
 21
382.7
  0
LINE
  8
0
 10
242.4
 20
382.7
 11
242.4
 21
395.8
  0
LINE
  8
0
 10
242.4
 20
395.8
 11
247.8
 21
395.8
  0
LINE
  8
0
 10
247.8
 20
395.8
 11
247.8
 21
408.1
  0
LINE
  8
0
 10
247.8
 20
408.1
 11
242.4
 21
408.1
  0
LINE
  8
0
 10
242.4
 20
408.1
 11
242.4
 21
420.8
  0
LINE
  8
0
 10
242.4
 20
420.8
 11
0.199997
 21
420.8
  0
LINE
  8
0
 10
0.199997
 20
420.8
 11
0.199997
 21
408.5
  0
LINE
  8
0
 10
0.199997
 20
408.5
 11
5.59999
 21
408.5
  0
LINE
  8
0
 10
5.59999
 20
408.5
 11
5.59999
 21
395.4
  0
LINE
  8
0
 10
5.59999
 20
395.4
 11
0.199997
 21
395.4
  0
LINE
  8
0
 10
0.199997
 20
395.4
 11
0.199997
 21
383.1
  0
LINE
  8
0
 10
0.199997
 20
383.1
 11
5.59999
 21
383.1
  0
LINE
  8
0
 10
5.59999
 20
383.1
 11
5.59999
 21
370
  0
LINE
  8
0
 10
5.59999
 20
370
 11
0.199997
 21
370
  0
LINE
  8
0
 10
0.199997
 20
370
 11
0.199997
 21
357.7
  0
LINE
  8
0
 10
0.199997
 20
357.7
 11
5.59999
 21
357.7
  0
LINE
  8
0
 10
5.59999
 20
357.7
 11
5.59999
 21
345
  0
LINE
  8
0
 10
5.59999
 20
345
 11
79.7667
 21
345
  0
LINE
  8
0
 10
79.7667
 20
345
 11
79.7667
 21
357.7
  0
LINE
  8
0
 10
162.433
 20
395.4
 11
162.433
 21
408.5
  0
LINE
  8
0
 10
162.433
 20
408.5
 11
168.233
 21
408.5
  0
LINE
  8
0
 10
168.233
 20
408.5
 11
168.233
 21
395.4
  0
LINE
  8
0
 10
168.233
 20
395.4
 11
162.433
 21
395.4
  0
LINE
  8
0
 10
79.7667
 20
395.4
 11
79.7667
 21
408.5
  0
LINE
  8
0
 10
79.7667
 20
408.5
 11
85.5667
 21
408.5
  0
LINE
  8
0
 10
85.5667
 20
408.5
 11
85.5667
 21
395.4
  0
LINE
  8
0
 10
85.5667
 20
395.4
 11
79.7667
 21
395.4
  0
LINE
  8
0
 10
162.433
 20
370
 11
162.433
 21
383.1
  0
LINE
  8
0
 10
162.433
 20
383.1
 11
168.233
 21
383.1
  0
LINE
  8
0
 10
168.233
 20
383.1
 11
168.233
 21
370
  0
LINE
  8
0
 10
168.233
 20
370
 11
162.433
 21
370
  0
LINE
  8
0
 10
79.7667
 20
370
 11
79.7667
 21
383.1
  0
LINE
  8
0
 10
79.7667
 20
383.1
 11
85.5667
 21
383.1
  0
LINE
  8
0
 10
85.5667
 20
383.1
 11
85.5667
 21
370
  0
LINE
  8
0
 10
85.5667
 20
370
 11
79.7667
 21
370
  0
LINE
  8
0
 10
241.6
 20
271.5
 11
247.4
 21
271.5
  0
LINE
  8
0
 10
247.4
 20
271.5
 11
247.4
 21
258.8
  0
LINE
  8
0
 10
247.4
 20
258.8
 11
488.8
 21
258.8
  0
LINE
  8
0
 10
488.8
 20
258.8
 11
488.8
 21
271.1
  0
LINE
  8
0
 10
488.8
 20
271.1
 11
483.4
 21
271.1
  0
LINE
  8
0
 10
483.4
 20
271.1
 11
483.4
 21
284.2
  0
LINE
  8
0
 10
483.4
 20
284.2
 11
488.8
 21
284.2
  0
LINE
  8
0
 10
488.8
 20
284.2
 11
488.8
 21
296.5
  0
LINE
  8
0
 10
488.8
 20
296.5
 11
483.4
 21
296.5
  0
LINE
  8
0
 10
483.4
 20
296.5
 11
483.4
 21
309.6
  0
LINE
  8
0
 10
483.4
 20
309.6
 11
488.8
 21
309.6
  0
LINE
  8
0
 10
488.8
 20
309.6
 11
488.8
 21
321.9
  0
LINE
  8
0
 10
488.8
 20
321.9
 11
483.4
 21
321.9
  0
LINE
  8
0
 10
483.4
 20
321.9
 11
483.4
 21
334.6
  0
LINE
  8
0
 10
483.4
 20
334.6
 11
0.199997
 21
334.6
  0
LINE
  8
0
 10
0.199997
 20
334.6
 11
0.199997
 21
322.3
  0
LINE
  8
0
 10
0.199997
 20
322.3
 11
5.59999
 21
322.3
  0
LINE
  8
0
 10
5.59999
 20
322.3
 11
5.59999
 21
309.2
  0
LINE
  8
0
 10
5.59999
 20
309.2
 11
0.199997
 21
309.2
  0
LINE
  8
0
 10
0.199997
 20
309.2
 11
0.199997
 21
296.9
  0
LINE
  8
0
 10
0.199997
 20
296.9
 11
5.59999
 21
296.9
  0
LINE
  8
0
 10
5.59999
 20
296.9
 11
5.59999
 21
283.8
  0
LINE
  8
0
 10
5.59999
 20
283.8
 11
0.199997
 21
283.8
  0
LINE
  8
0
 10
0.199997
 20
283.8
 11
0.199997
 21
271.5
  0
LINE
  8
0
 10
0.199997
 20
271.5
 11
5.59999
 21
271.5
  0
LINE
  8
0
 10
5.59999
 20
271.5
 11
5.59999
 21
258.8
  0
LINE
  8
0
 10
5.59999
 20
258.8
 11
241.6
 21
258.8
  0
LINE
  8
0
 10
241.6
 20
258.8
 11
241.6
 21
271.5
  0
LINE
  8
0
 10
241.6
 20
309.2
 11
241.6
 21
322.3
  0
LINE
  8
0
 10
241.6
 20
322.3
 11
247.4
 21
322.3
  0
LINE
  8
0
 10
247.4
 20
322.3
 11
247.4
 21
309.2
  0
LINE
  8
0
 10
247.4
 20
309.2
 11
241.6
 21
309.2
  0
LINE
  8
0
 10
241.6
 20
283.8
 11
241.6
 21
296.9
  0
LINE
  8
0
 10
241.6
 20
296.9
 11
247.4
 21
296.9
  0
LINE
  8
0
 10
247.4
 20
296.9
 11
247.4
 21
283.8
  0
LINE
  8
0
 10
247.4
 20
283.8
 11
241.6
 21
283.8
  0
LINE
  8
0
 10
241.6
 20
210.7
 11
247.4
 21
210.7
  0
LINE
  8
0
 10
247.4
 20
210.7
 11
247.4
 21
172.6
  0
LINE
  8
0
 10
247.4
 20
172.6
 11
488.8
 21
172.6
  0
LINE
  8
0
 10
488.8
 20
172.6
 11
488.8
 21
184.9
  0
LINE
  8
0
 10
488.8
 20
184.9
 11
483.4
 21
184.9
  0
LINE
  8
0
 10
483.4
 20
184.9
 11
483.4
 21
198
  0
LINE
  8
0
 10
483.4
 20
198
 11
488.8
 21
198
  0
LINE
  8
0
 10
488.8
 20
198
 11
488.8
 21
210.3
  0
LINE
  8
0
 10
488.8
 20
210.3
 11
483.4
 21
210.3
  0
LINE
  8
0
 10
483.4
 20
210.3
 11
483.4
 21
223.4
  0
LINE
  8
0
 10
483.4
 20
223.4
 11
488.8
 21
223.4
  0
LINE
  8
0
 10
488.8
 20
223.4
 11
488.8
 21
235.7
  0
LINE
  8
0
 10
488.8
 20
235.7
 11
483.4
 21
235.7
  0
LINE
  8
0
 10
483.4
 20
235.7
 11
483.4
 21
248.4
  0
LINE
  8
0
 10
483.4
 20
248.4
 11
5.59999
 21
248.4
  0
LINE
  8
0
 10
5.59999
 20
248.4
 11
5.59999
 21
235.7
  0
LINE
  8
0
 10
5.59999
 20
235.7
 11
0.199997
 21
235.7
  0
LINE
  8
0
 10
0.199997
 20
235.7
 11
0.199997
 21
223.4
  0
LINE
  8
0
 10
0.199997
 20
223.4
 11
5.59999
 21
223.4
  0
LINE
  8
0
 10
5.59999
 20
223.4
 11
5.59999
 21
210.3
  0
LINE
  8
0
 10
5.59999
 20
210.3
 11
0.199997
 21
210.3
  0
LINE
  8
0
 10
0.199997
 20
210.3
 11
0.199997
 21
198
  0
LINE
  8
0
 10
0.199997
 20
198
 11
5.59999
 21
198
  0
LINE
  8
0
 10
5.59999
 20
198
 11
5.59999
 21
184.9
  0
LINE
  8
0
 10
5.59999
 20
184.9
 11
0.199997
 21
184.9
  0
LINE
  8
0
 10
0.199997
 20
184.9
 11
0.199997
 21
172.6
  0
LINE
  8
0
 10
0.199997
 20
172.6
 11
241.6
 21
172.6
  0
LINE
  8
0
 10
241.6
 20
172.6
 11
241.6
 21
210.7
  0
LINE
  8
0
 10
241.6
 20
99.1
 11
247.4
 21
99.1
  0
LINE
  8
0
 10
247.4
 20
99.1
 11
247.4
 21
86.4
  0
LINE
  8
0
 10
247.4
 20
86.4
 11
488.8
 21
86.4
  0
LINE
  8
0
 10
488.8
 20
86.4
 11
488.8
 21
98.7
  0
LINE
  8
0
 10
488.8
 20
98.7
 11
483.4
 21
98.7
  0
LINE
  8
0
 10
483.4
 20
98.7
 11
483.4
 21
111.8
  0
LINE
  8
0
 10
483.4
 20
111.8
 11
488.8
 21
111.8
  0
LINE
  8
0
 10
488.8
 20
111.8
 11
488.8
 21
124.1
  0
LINE
  8
0
 10
488.8
 20
124.1
 11
483.4
 21
124.1
  0
LINE
  8
0
 10
483.4
 20
124.1
 11
483.4
 21
137.2
  0
LINE
  8
0
 10
483.4
 20
137.2
 11
488.8
 21
137.2
  0
LINE
  8
0
 10
488.8
 20
137.2
 11
488.8
 21
149.5
  0
LINE
  8
0
 10
488.8
 20
149.5
 11
483.4
 21
149.5
  0
LINE
  8
0
 10
483.4
 20
149.5
 11
483.4
 21
162.2
  0
LINE
  8
0
 10
483.4
 20
162.2
 11
5.59999
 21
162.2
  0
LINE
  8
0
 10
5.59999
 20
162.2
 11
5.59999
 21
149.5
  0
LINE
  8
0
 10
5.59999
 20
149.5
 11
0.199997
 21
149.5
  0
LINE
  8
0
 10
0.199997
 20
149.5
 11
0.199997
 21
137.2
  0
LINE
  8
0
 10
0.199997
 20
137.2
 11
5.59999
 21
137.2
  0
LINE
  8
0
 10
5.59999
 20
137.2
 11
5.59999
 21
124.1
  0
LINE
  8
0
 10
5.59999
 20
124.1
 11
0.199997
 21
124.1
  0
LINE
  8
0
 10
0.199997
 20
124.1
 11
0.199997
 21
111.8
  0
LINE
  8
0
 10
0.199997
 20
111.8
 11
5.59999
 21
111.8
  0
LINE
  8
0
 10
5.59999
 20
111.8
 11
5.59999
 21
98.7
  0
LINE
  8
0
 10
5.59999
 20
98.7
 11
0.199997
 21
98.7
  0
LINE
  8
0
 10
0.199997
 20
98.7
 11
0.199997
 21
86.4
  0
LINE
  8
0
 10
0.199997
 20
86.4
 11
241.6
 21
86.4
  0
LINE
  8
0
 10
241.6
 20
86.4
 11
241.6
 21
99.1
  0
LINE
  8
0
 10
241.6
 20
136.8
 11
241.6
 21
149.9
  0
LINE
  8
0
 10
241.6
 20
149.9
 11
247.4
 21
149.9
  0
LINE
  8
0
 10
247.4
 20
149.9
 11
247.4
 21
136.8
  0
LINE
  8
0
 10
247.4
 20
136.8
 11
241.6
 21
136.8
  0
LINE
  8
0
 10
241.6
 20
111.4
 11
241.6
 21
124.5
  0
LINE
  8
0
 10
241.6
 20
124.5
 11
247.4
 21
124.5
  0
LINE
  8
0
 10
247.4
 20
124.5
 11
247.4
 21
111.4
  0
LINE
  8
0
 10
247.4
 20
111.4
 11
241.6
 21
111.4
  0
LINE
  8
0
 10
167.833
 20
12.5
 11
162.433
 21
12.5
  0
LINE
  8
0
 10
162.433
 20
12.5
 11
162.433
 21
25.6
  0
LINE
  8
0
 10
162.433
 20
25.6
 11
167.833
 21
25.6
  0
LINE
  8
0
 10
167.833
 20
25.6
 11
167.833
 21
37.9
  0
LINE
  8
0
 10
167.833
 20
37.9
 11
162.433
 21
37.9
  0
LINE
  8
0
 10
162.433
 20
37.9
 11
162.433
 21
51
  0
LINE
  8
0
 10
162.433
 20
51
 11
167.833
 21
51
  0
LINE
  8
0
 10
167.833
 20
51
 11
167.833
 21
63.3
  0
LINE
  8
0
 10
167.833
 20
63.3
 11
162.433
 21
63.3
  0
LINE
  8
0
 10
162.433
 20
63.3
 11
162.433
 21
76
  0
LINE
  8
0
 10
162.433
 20
76
 11
85.5667
 21
76.4
  0
LINE
  8
0
 10
85.5667
 20
76.4
 11
85.5667
 21
38.3
  0
LINE
  8
0
 10
85.5667
 20
38.3
 11
79.7667
 21
38.3
  0
LINE
  8
0
 10
79.7667
 20
38.3
 11
79.7667
 21
76.4
  0
LINE
  8
0
 10
79.7667
 20
76.4
 11
5.59999
 21
76
  0
LINE
  8
0
 10
5.59999
 20
76
 11
5.59999
 21
63.3
  0
LINE
  8
0
 10
5.59999
 20
63.3
 11
0.199997
 21
63.3
  0
LINE
  8
0
 10
0.199997
 20
63.3
 11
0.199997
 21
51
  0
LINE
  8
0
 10
0.199997
 20
51
 11
5.59999
 21
51
  0
LINE
  8
0
 10
5.59999
 20
51
 11
5.59999
 21
37.9
  0
LINE
  8
0
 10
5.59999
 20
37.9
 11
0.199997
 21
37.9
  0
LINE
  8
0
 10
0.199997
 20
37.9
 11
0.199997
 21
25.6
  0
LINE
  8
0
 10
0.199997
 20
25.6
 11
5.59999
 21
25.6
  0
LINE
  8
0
 10
5.59999
 20
25.6
 11
5.59999
 21
12.5
  0
LINE
  8
0
 10
5.59999
 20
12.5
 11
0.199997
 21
12.5
  0
LINE
  8
0
 10
0.199997
 20
12.5
 11
0.199997
 21
0.199997
  0
LINE
  8
0
 10
0.199997
 20
0.199997
 11
167.833
 21
0.199997
  0
LINE
  8
0
 10
167.833
 20
0.199997
 11
167.833
 21
12.5
  0
ENDSEC
  0
SECTION
  2
OBJECTS
  0
DICTIONARY
  0
ENDSEC
  0
EOF
