  0
SECTION
  2
BLOCKS
  0
ENDSEC
  0
SECTION
  2
ENTITIES
  0
LINE
  8
0
 10
331.329
 20
337.75
 11
335.004
 21
337.75
  0
LINE
  8
0
 10
335.004
 20
337.75
 11
335.004
 21
325.05
  0
LINE
  8
0
 10
335.004
 20
325.05
 11
413.996
 21
325.05
  0
LINE
  8
0
 10
413.996
 20
325.05
 11
413.996
 21
337.75
  0
LINE
  8
0
 10
413.996
 20
337.75
 11
417.671
 21
337.75
  0
LINE
  8
0
 10
417.671
 20
337.75
 11
417.671
 21
325.05
  0
LINE
  8
0
 10
417.671
 20
325.05
 11
498.25
 21
325.05
  0
LINE
  8
0
 10
498.25
 20
325.05
 11
498.25
 21
337.25
  0
LINE
  8
0
 10
498.25
 20
337.25
 11
495.075
 21
337.25
  0
LINE
  8
0
 10
495.075
 20
337.25
 11
495.075
 21
350.45
  0
LINE
  8
0
 10
495.075
 20
350.45
 11
498.25
 21
350.45
  0
LINE
  8
0
 10
498.25
 20
350.45
 11
498.25
 21
362.65
  0
LINE
  8
0
 10
498.25
 20
362.65
 11
495.075
 21
362.65
  0
LINE
  8
0
 10
495.075
 20
362.65
 11
495.075
 21
375.85
  0
LINE
  8
0
 10
495.075
 20
375.85
 11
498.25
 21
375.85
  0
LINE
  8
0
 10
498.25
 20
375.85
 11
498.25
 21
388.05
  0
LINE
  8
0
 10
498.25
 20
388.05
 11
495.075
 21
388.05
  0
LINE
  8
0
 10
495.075
 20
388.05
 11
495.075
 21
400.75
  0
LINE
  8
0
 10
495.075
 20
400.75
 11
250.75
 21
400.75
  0
LINE
  8
0
 10
250.75
 20
400.75
 11
250.75
 21
388.55
  0
LINE
  8
0
 10
250.75
 20
388.55
 11
253.925
 21
388.55
  0
LINE
  8
0
 10
253.925
 20
388.55
 11
253.925
 21
375.35
  0
LINE
  8
0
 10
253.925
 20
375.35
 11
250.75
 21
375.35
  0
LINE
  8
0
 10
250.75
 20
375.35
 11
250.75
 21
363.15
  0
LINE
  8
0
 10
250.75
 20
363.15
 11
253.925
 21
363.15
  0
LINE
  8
0
 10
253.925
 20
363.15
 11
253.925
 21
349.95
  0
LINE
  8
0
 10
253.925
 20
349.95
 11
250.75
 21
349.95
  0
LINE
  8
0
 10
250.75
 20
349.95
 11
250.75
 21
337.75
  0
LINE
  8
0
 10
250.75
 20
337.75
 11
253.925
 21
337.75
  0
LINE
  8
0
 10
253.925
 20
337.75
 11
253.925
 21
325.05
  0
LINE
  8
0
 10
253.925
 20
325.05
 11
331.329
 21
325.05
  0
LINE
  8
0
 10
331.329
 20
325.05
 11
331.329
 21
337.75
  0
LINE
  8
0
 10
413.996
 20
375.35
 11
413.996
 21
388.55
  0
LINE
  8
0
 10
413.996
 20
388.55
 11
417.671
 21
388.55
  0
LINE
  8
0
 10
417.671
 20
388.55
 11
417.671
 21
375.35
  0
LINE
  8
0
 10
417.671
 20
375.35
 11
413.996
 21
375.35
  0
LINE
  8
0
 10
331.329
 20
375.35
 11
331.329
 21
388.55
  0
LINE
  8
0
 10
331.329
 20
388.55
 11
335.004
 21
388.55
  0
LINE
  8
0
 10
335.004
 20
388.55
 11
335.004
 21
375.35
  0
LINE
  8
0
 10
335.004
 20
375.35
 11
331.329
 21
375.35
  0
LINE
  8
0
 10
413.996
 20
349.95
 11
413.996
 21
363.15
  0
LINE
  8
0
 10
413.996
 20
363.15
 11
417.671
 21
363.15
  0
LINE
  8
0
 10
417.671
 20
363.15
 11
417.671
 21
349.95
  0
LINE
  8
0
 10
417.671
 20
349.95
 11
413.996
 21
349.95
  0
LINE
  8
0
 10
331.329
 20
349.95
 11
331.329
 21
363.15
  0
LINE
  8
0
 10
331.329
 20
363.15
 11
335.004
 21
363.15
  0
LINE
  8
0
 10
335.004
 20
363.15
 11
335.004
 21
349.95
  0
LINE
  8
0
 10
335.004
 20
349.95
 11
331.329
 21
349.95
  0
LINE
  8
0
 10
80.8292
 20
337.75
 11
84.5042
 21
337.75
  0
LINE
  8
0
 10
84.5042
 20
337.75
 11
84.5042
 21
325.05
  0
LINE
  8
0
 10
84.5042
 20
325.05
 11
163.496
 21
325.05
  0
LINE
  8
0
 10
163.496
 20
325.05
 11
163.496
 21
337.75
  0
LINE
  8
0
 10
163.496
 20
337.75
 11
167.171
 21
337.75
  0
LINE
  8
0
 10
167.171
 20
337.75
 11
167.171
 21
325.05
  0
LINE
  8
0
 10
167.171
 20
325.05
 11
247.75
 21
325.05
  0
LINE
  8
0
 10
247.75
 20
325.05
 11
247.75
 21
337.25
  0
LINE
  8
0
 10
247.75
 20
337.25
 11
244.575
 21
337.25
  0
LINE
  8
0
 10
244.575
 20
337.25
 11
244.575
 21
350.45
  0
LINE
  8
0
 10
244.575
 20
350.45
 11
247.75
 21
350.45
  0
LINE
  8
0
 10
247.75
 20
350.45
 11
247.75
 21
362.65
  0
LINE
  8
0
 10
247.75
 20
362.65
 11
244.575
 21
362.65
  0
LINE
  8
0
 10
244.575
 20
362.65
 11
244.575
 21
375.85
  0
LINE
  8
0
 10
244.575
 20
375.85
 11
247.75
 21
375.85
  0
LINE
  8
0
 10
247.75
 20
375.85
 11
247.75
 21
388.05
  0
LINE
  8
0
 10
247.75
 20
388.05
 11
244.575
 21
388.05
  0
LINE
  8
0
 10
244.575
 20
388.05
 11
244.575
 21
400.75
  0
LINE
  8
0
 10
244.575
 20
400.75
 11
0.25
 21
400.75
  0
LINE
  8
0
 10
0.25
 20
400.75
 11
0.25
 21
388.55
  0
LINE
  8
0
 10
0.25
 20
388.55
 11
3.42499
 21
388.55
  0
LINE
  8
0
 10
3.42499
 20
388.55
 11
3.42499
 21
375.35
  0
LINE
  8
0
 10
3.42499
 20
375.35
 11
0.25
 21
375.35
  0
LINE
  8
0
 10
0.25
 20
375.35
 11
0.25
 21
363.15
  0
LINE
  8
0
 10
0.25
 20
363.15
 11
3.42499
 21
363.15
  0
LINE
  8
0
 10
3.42499
 20
363.15
 11
3.42499
 21
349.95
  0
LINE
  8
0
 10
3.42499
 20
349.95
 11
0.25
 21
349.95
  0
LINE
  8
0
 10
0.25
 20
349.95
 11
0.25
 21
337.75
  0
LINE
  8
0
 10
0.25
 20
337.75
 11
3.42499
 21
337.75
  0
LINE
  8
0
 10
3.42499
 20
337.75
 11
3.42499
 21
325.05
  0
LINE
  8
0
 10
3.42499
 20
325.05
 11
80.8292
 21
325.05
  0
LINE
  8
0
 10
80.8292
 20
325.05
 11
80.8292
 21
337.75
  0
LINE
  8
0
 10
80.8292
 20
375.35
 11
80.8292
 21
388.55
  0
LINE
  8
0
 10
80.8292
 20
388.55
 11
84.5042
 21
388.55
  0
LINE
  8
0
 10
84.5042
 20
388.55
 11
84.5042
 21
375.35
  0
LINE
  8
0
 10
84.5042
 20
375.35
 11
80.8292
 21
375.35
  0
LINE
  8
0
 10
163.496
 20
375.35
 11
163.496
 21
388.55
  0
LINE
  8
0
 10
163.496
 20
388.55
 11
167.171
 21
388.55
  0
LINE
  8
0
 10
167.171
 20
388.55
 11
167.171
 21
375.35
  0
LINE
  8
0
 10
167.171
 20
375.35
 11
163.496
 21
375.35
  0
LINE
  8
0
 10
80.8292
 20
349.95
 11
80.8292
 21
363.15
  0
LINE
  8
0
 10
80.8292
 20
363.15
 11
84.5042
 21
363.15
  0
LINE
  8
0
 10
84.5042
 20
363.15
 11
84.5042
 21
349.95
  0
LINE
  8
0
 10
84.5042
 20
349.95
 11
80.8292
 21
349.95
  0
LINE
  8
0
 10
163.496
 20
349.95
 11
163.496
 21
363.15
  0
LINE
  8
0
 10
163.496
 20
363.15
 11
167.171
 21
363.15
  0
LINE
  8
0
 10
167.171
 20
363.15
 11
167.171
 21
349.95
  0
LINE
  8
0
 10
167.171
 20
349.95
 11
163.496
 21
349.95
  0
LINE
  8
0
 10
488.75
 20
256.05
 11
485.575
 21
256.05
  0
LINE
  8
0
 10
485.575
 20
256.05
 11
485.575
 21
269.25
  0
LINE
  8
0
 10
485.575
 20
269.25
 11
488.75
 21
269.25
  0
LINE
  8
0
 10
488.75
 20
269.25
 11
488.75
 21
281.45
  0
LINE
  8
0
 10
488.75
 20
281.45
 11
485.575
 21
281.45
  0
LINE
  8
0
 10
485.575
 20
281.45
 11
485.575
 21
294.65
  0
LINE
  8
0
 10
485.575
 20
294.65
 11
488.75
 21
294.65
  0
LINE
  8
0
 10
488.75
 20
294.65
 11
488.75
 21
306.85
  0
LINE
  8
0
 10
488.75
 20
306.85
 11
485.575
 21
306.85
  0
LINE
  8
0
 10
485.575
 20
306.85
 11
485.575
 21
319.55
  0
LINE
  8
0
 10
485.575
 20
319.55
 11
0.25
 21
319.55
  0
LINE
  8
0
 10
0.25
 20
319.55
 11
0.25
 21
307.35
  0
LINE
  8
0
 10
0.25
 20
307.35
 11
3.42499
 21
307.35
  0
LINE
  8
0
 10
3.42499
 20
307.35
 11
3.42499
 21
294.15
  0
LINE
  8
0
 10
3.42499
 20
294.15
 11
0.25
 21
294.15
  0
LINE
  8
0
 10
0.25
 20
294.15
 11
0.25
 21
281.95
  0
LINE
  8
0
 10
0.25
 20
281.95
 11
3.42499
 21
281.95
  0
LINE
  8
0
 10
3.42499
 20
281.95
 11
3.42499
 21
268.75
  0
LINE
  8
0
 10
3.42499
 20
268.75
 11
0.25
 21
268.75
  0
LINE
  8
0
 10
0.25
 20
268.75
 11
0.25
 21
256.55
  0
LINE
  8
0
 10
0.25
 20
256.55
 11
3.42499
 21
256.55
  0
LINE
  8
0
 10
3.42499
 20
256.55
 11
3.42499
 21
243.85
  0
LINE
  8
0
 10
3.42499
 20
243.85
 11
488.75
 21
243.85
  0
LINE
  8
0
 10
488.75
 20
243.85
 11
488.75
 21
256.05
  0
LINE
  8
0
 10
242.662
 20
175.35
 11
246.337
 21
175.35
  0
LINE
  8
0
 10
246.337
 20
175.35
 11
246.337
 21
162.65
  0
LINE
  8
0
 10
246.337
 20
162.65
 11
488.75
 21
162.65
  0
LINE
  8
0
 10
488.75
 20
162.65
 11
488.75
 21
174.85
  0
LINE
  8
0
 10
488.75
 20
174.85
 11
485.575
 21
174.85
  0
LINE
  8
0
 10
485.575
 20
174.85
 11
485.575
 21
188.05
  0
LINE
  8
0
 10
485.575
 20
188.05
 11
488.75
 21
188.05
  0
LINE
  8
0
 10
488.75
 20
188.05
 11
488.75
 21
200.25
  0
LINE
  8
0
 10
488.75
 20
200.25
 11
485.575
 21
200.25
  0
LINE
  8
0
 10
485.575
 20
200.25
 11
485.575
 21
213.45
  0
LINE
  8
0
 10
485.575
 20
213.45
 11
488.75
 21
213.45
  0
LINE
  8
0
 10
488.75
 20
213.45
 11
488.75
 21
225.65
  0
LINE
  8
0
 10
488.75
 20
225.65
 11
485.575
 21
225.65
  0
LINE
  8
0
 10
485.575
 20
225.65
 11
485.575
 21
238.35
  0
LINE
  8
0
 10
485.575
 20
238.35
 11
0.25
 21
238.35
  0
LINE
  8
0
 10
0.25
 20
238.35
 11
0.25
 21
226.15
  0
LINE
  8
0
 10
0.25
 20
226.15
 11
3.42499
 21
226.15
  0
LINE
  8
0
 10
3.42499
 20
226.15
 11
3.42499
 21
212.95
  0
LINE
  8
0
 10
3.42499
 20
212.95
 11
0.25
 21
212.95
  0
LINE
  8
0
 10
0.25
 20
212.95
 11
0.25
 21
200.75
  0
LINE
  8
0
 10
0.25
 20
200.75
 11
3.42499
 21
200.75
  0
LINE
  8
0
 10
3.42499
 20
200.75
 11
3.42499
 21
187.55
  0
LINE
  8
0
 10
3.42499
 20
187.55
 11
0.25
 21
187.55
  0
LINE
  8
0
 10
0.25
 20
187.55
 11
0.25
 21
175.35
  0
LINE
  8
0
 10
0.25
 20
175.35
 11
3.42499
 21
175.35
  0
LINE
  8
0
 10
3.42499
 20
175.35
 11
3.42499
 21
162.65
  0
LINE
  8
0
 10
3.42499
 20
162.65
 11
242.662
 21
162.65
  0
LINE
  8
0
 10
242.662
 20
162.65
 11
242.662
 21
175.35
  0
LINE
  8
0
 10
242.662
 20
212.95
 11
242.662
 21
226.15
  0
LINE
  8
0
 10
242.662
 20
226.15
 11
246.337
 21
226.15
  0
LINE
  8
0
 10
246.337
 20
226.15
 11
246.337
 21
212.95
  0
LINE
  8
0
 10
246.337
 20
212.95
 11
242.662
 21
212.95
  0
LINE
  8
0
 10
242.662
 20
187.55
 11
242.662
 21
200.75
  0
LINE
  8
0
 10
242.662
 20
200.75
 11
246.337
 21
200.75
  0
LINE
  8
0
 10
246.337
 20
200.75
 11
246.337
 21
187.55
  0
LINE
  8
0
 10
246.337
 20
187.55
 11
242.662
 21
187.55
  0
LINE
  8
0
 10
519.15
 20
3.42499
 11
532.35
 21
3.42499
  0
LINE
  8
0
 10
532.35
 20
3.42499
 11
532.35
 21
0.25
  0
LINE
  8
0
 10
532.35
 20
0.25
 11
544.55
 21
0.25
  0
LINE
  8
0
 10
544.55
 20
0.25
 11
544.55
 21
3.42499
  0
LINE
  8
0
 10
544.55
 20
3.42499
 11
557.75
 21
3.42499
  0
LINE
  8
0
 10
557.75
 20
3.42499
 11
557.75
 21
0.25
  0
LINE
  8
0
 10
557.75
 20
0.25
 11
569.95
 21
0.25
  0
LINE
  8
0
 10
569.95
 20
0.25
 11
569.95
 21
166.671
  0
LINE
  8
0
 10
569.95
 20
166.671
 11
557.75
 21
166.671
  0
LINE
  8
0
 10
557.75
 20
166.671
 11
557.75
 21
163.496
  0
LINE
  8
0
 10
557.75
 20
163.496
 11
544.55
 21
163.496
  0
LINE
  8
0
 10
544.55
 20
163.496
 11
544.55
 21
166.671
  0
LINE
  8
0
 10
544.55
 20
166.671
 11
532.35
 21
166.671
  0
LINE
  8
0
 10
532.35
 20
166.671
 11
532.35
 21
163.496
  0
LINE
  8
0
 10
532.35
 20
163.496
 11
519.15
 21
163.496
  0
LINE
  8
0
 10
519.15
 20
163.496
 11
519.15
 21
166.671
  0
LINE
  8
0
 10
519.15
 20
166.671
 11
506.95
 21
166.671
  0
LINE
  8
0
 10
506.95
 20
166.671
 11
506.95
 21
163.496
  0
LINE
  8
0
 10
506.95
 20
163.496
 11
494.25
 21
163.496
  0
LINE
  8
0
 10
494.25
 20
163.496
 11
493.75
 21
84.5042
  0
LINE
  8
0
 10
493.75
 20
84.5042
 11
531.85
 21
84.5042
  0
LINE
  8
0
 10
531.85
 20
84.5042
 11
531.85
 21
80.8292
  0
LINE
  8
0
 10
531.85
 20
80.8292
 11
493.75
 21
80.8292
  0
LINE
  8
0
 10
493.75
 20
80.8292
 11
494.25
 21
3.42499
  0
LINE
  8
0
 10
494.25
 20
3.42499
 11
506.95
 21
3.42499
  0
LINE
  8
0
 10
506.95
 20
3.42499
 11
506.95
 21
0.25
  0
LINE
  8
0
 10
506.95
 20
0.25
 11
519.15
 21
0.25
  0
LINE
  8
0
 10
519.15
 20
0.25
 11
519.15
 21
3.42499
  0
LINE
  8
0
 10
242.662
 20
119.55
 11
246.337
 21
119.55
  0
LINE
  8
0
 10
246.337
 20
119.55
 11
246.337
 21
81.45
  0
LINE
  8
0
 10
246.337
 20
81.45
 11
488.75
 21
81.45
  0
LINE
  8
0
 10
488.75
 20
81.45
 11
488.75
 21
93.65
  0
LINE
  8
0
 10
488.75
 20
93.65
 11
485.575
 21
93.65
  0
LINE
  8
0
 10
485.575
 20
93.65
 11
485.575
 21
106.85
  0
LINE
  8
0
 10
485.575
 20
106.85
 11
488.75
 21
106.85
  0
LINE
  8
0
 10
488.75
 20
106.85
 11
488.75
 21
119.05
  0
LINE
  8
0
 10
488.75
 20
119.05
 11
485.575
 21
119.05
  0
LINE
  8
0
 10
485.575
 20
119.05
 11
485.575
 21
132.25
  0
LINE
  8
0
 10
485.575
 20
132.25
 11
488.75
 21
132.25
  0
LINE
  8
0
 10
488.75
 20
132.25
 11
488.75
 21
144.45
  0
LINE
  8
0
 10
488.75
 20
144.45
 11
485.575
 21
144.45
  0
LINE
  8
0
 10
485.575
 20
144.45
 11
485.575
 21
157.15
  0
LINE
  8
0
 10
485.575
 20
157.15
 11
3.42499
 21
157.15
  0
LINE
  8
0
 10
3.42499
 20
157.15
 11
3.42499
 21
144.45
  0
LINE
  8
0
 10
3.42499
 20
144.45
 11
0.25
 21
144.45
  0
LINE
  8
0
 10
0.25
 20
144.45
 11
0.25
 21
132.25
  0
LINE
  8
0
 10
0.25
 20
132.25
 11
3.42499
 21
132.25
  0
LINE
  8
0
 10
3.42499
 20
132.25
 11
3.42499
 21
119.05
  0
LINE
  8
0
 10
3.42499
 20
119.05
 11
0.25
 21
119.05
  0
LINE
  8
0
 10
0.25
 20
119.05
 11
0.25
 21
106.85
  0
LINE
  8
0
 10
0.25
 20
106.85
 11
3.42499
 21
106.85
  0
LINE
  8
0
 10
3.42499
 20
106.85
 11
3.42499
 21
93.65
  0
LINE
  8
0
 10
3.42499
 20
93.65
 11
0.25
 21
93.65
  0
LINE
  8
0
 10
0.25
 20
93.65
 11
0.25
 21
81.45
  0
LINE
  8
0
 10
0.25
 20
81.45
 11
242.662
 21
81.45
  0
LINE
  8
0
 10
242.662
 20
81.45
 11
242.662
 21
119.55
  0
LINE
  8
0
 10
242.662
 20
12.95
 11
246.337
 21
12.95
  0
LINE
  8
0
 10
246.337
 20
12.95
 11
246.337
 21
0.25
  0
LINE
  8
0
 10
246.337
 20
0.25
 11
488.75
 21
0.25
  0
LINE
  8
0
 10
488.75
 20
0.25
 11
488.75
 21
12.45
  0
LINE
  8
0
 10
488.75
 20
12.45
 11
485.575
 21
12.45
  0
LINE
  8
0
 10
485.575
 20
12.45
 11
485.575
 21
25.65
  0
LINE
  8
0
 10
485.575
 20
25.65
 11
488.75
 21
25.65
  0
LINE
  8
0
 10
488.75
 20
25.65
 11
488.75
 21
37.85
  0
LINE
  8
0
 10
488.75
 20
37.85
 11
485.575
 21
37.85
  0
LINE
  8
0
 10
485.575
 20
37.85
 11
485.575
 21
51.05
  0
LINE
  8
0
 10
485.575
 20
51.05
 11
488.75
 21
51.05
  0
LINE
  8
0
 10
488.75
 20
51.05
 11
488.75
 21
63.25
  0
LINE
  8
0
 10
488.75
 20
63.25
 11
485.575
 21
63.25
  0
LINE
  8
0
 10
485.575
 20
63.25
 11
485.575
 21
75.95
  0
LINE
  8
0
 10
485.575
 20
75.95
 11
3.42499
 21
75.95
  0
LINE
  8
0
 10
3.42499
 20
75.95
 11
3.42499
 21
63.25
  0
LINE
  8
0
 10
3.42499
 20
63.25
 11
0.25
 21
63.25
  0
LINE
  8
0
 10
0.25
 20
63.25
 11
0.25
 21
51.05
  0
LINE
  8
0
 10
0.25
 20
51.05
 11
3.42499
 21
51.05
  0
LINE
  8
0
 10
3.42499
 20
51.05
 11
3.42499
 21
37.85
  0
LINE
  8
0
 10
3.42499
 20
37.85
 11
0.25
 21
37.85
  0
LINE
  8
0
 10
0.25
 20
37.85
 11
0.25
 21
25.65
  0
LINE
  8
0
 10
0.25
 20
25.65
 11
3.42499
 21
25.65
  0
LINE
  8
0
 10
3.42499
 20
25.65
 11
3.42499
 21
12.45
  0
LINE
  8
0
 10
3.42499
 20
12.45
 11
0.25
 21
12.45
  0
LINE
  8
0
 10
0.25
 20
12.45
 11
0.25
 21
0.25
  0
LINE
  8
0
 10
0.25
 20
0.25
 11
242.662
 21
0.25
  0
LINE
  8
0
 10
242.662
 20
0.25
 11
242.662
 21
12.95
  0
LINE
  8
0
 10
242.662
 20
50.55
 11
242.662
 21
63.75
  0
LINE
  8
0
 10
242.662
 20
63.75
 11
246.337
 21
63.75
  0
LINE
  8
0
 10
246.337
 20
63.75
 11
246.337
 21
50.55
  0
LINE
  8
0
 10
246.337
 20
50.55
 11
242.662
 21
50.55
  0
LINE
  8
0
 10
242.662
 20
25.15
 11
242.662
 21
38.35
  0
LINE
  8
0
 10
242.662
 20
38.35
 11
246.337
 21
38.35
  0
LINE
  8
0
 10
246.337
 20
38.35
 11
246.337
 21
25.15
  0
LINE
  8
0
 10
246.337
 20
25.15
 11
242.662
 21
25.15
  0
ENDSEC
  0
SECTION
  2
OBJECTS
  0
DICTIONARY
  0
ENDSEC
  0
EOF
