  0
SECTION
  2
BLOCKS
  0
ENDSEC
  0
SECTION
  2
ENTITIES
  0
LINE
  8
0
 10
328.662
 20
337.75
 11
332.337
 21
337.75
  0
LINE
  8
0
 10
332.337
 20
337.75
 11
332.337
 21
325.05
  0
LINE
  8
0
 10
332.337
 20
325.05
 11
410.662
 21
325.05
  0
LINE
  8
0
 10
410.662
 20
325.05
 11
410.662
 21
337.75
  0
LINE
  8
0
 10
410.662
 20
337.75
 11
414.337
 21
337.75
  0
LINE
  8
0
 10
414.337
 20
337.75
 11
414.337
 21
325.05
  0
LINE
  8
0
 10
414.337
 20
325.05
 11
494.25
 21
325.05
  0
LINE
  8
0
 10
494.25
 20
325.05
 11
494.25
 21
337.25
  0
LINE
  8
0
 10
494.25
 20
337.25
 11
491.075
 21
337.25
  0
LINE
  8
0
 10
491.075
 20
337.25
 11
491.075
 21
350.45
  0
LINE
  8
0
 10
491.075
 20
350.45
 11
494.25
 21
350.45
  0
LINE
  8
0
 10
494.25
 20
350.45
 11
494.25
 21
362.65
  0
LINE
  8
0
 10
494.25
 20
362.65
 11
491.075
 21
362.65
  0
LINE
  8
0
 10
491.075
 20
362.65
 11
491.075
 21
375.85
  0
LINE
  8
0
 10
491.075
 20
375.85
 11
494.25
 21
375.85
  0
LINE
  8
0
 10
494.25
 20
375.85
 11
494.25
 21
388.05
  0
LINE
  8
0
 10
494.25
 20
388.05
 11
491.075
 21
388.05
  0
LINE
  8
0
 10
491.075
 20
388.05
 11
491.075
 21
400.75
  0
LINE
  8
0
 10
491.075
 20
400.75
 11
248.75
 21
400.75
  0
LINE
  8
0
 10
248.75
 20
400.75
 11
248.75
 21
388.55
  0
LINE
  8
0
 10
248.75
 20
388.55
 11
251.925
 21
388.55
  0
LINE
  8
0
 10
251.925
 20
388.55
 11
251.925
 21
375.35
  0
LINE
  8
0
 10
251.925
 20
375.35
 11
248.75
 21
375.35
  0
LINE
  8
0
 10
248.75
 20
375.35
 11
248.75
 21
363.15
  0
LINE
  8
0
 10
248.75
 20
363.15
 11
251.925
 21
363.15
  0
LINE
  8
0
 10
251.925
 20
363.15
 11
251.925
 21
349.95
  0
LINE
  8
0
 10
251.925
 20
349.95
 11
248.75
 21
349.95
  0
LINE
  8
0
 10
248.75
 20
349.95
 11
248.75
 21
337.75
  0
LINE
  8
0
 10
248.75
 20
337.75
 11
251.925
 21
337.75
  0
LINE
  8
0
 10
251.925
 20
337.75
 11
251.925
 21
325.05
  0
LINE
  8
0
 10
251.925
 20
325.05
 11
328.662
 21
325.05
  0
LINE
  8
0
 10
328.662
 20
325.05
 11
328.662
 21
337.75
  0
LINE
  8
0
 10
410.662
 20
375.35
 11
410.662
 21
388.55
  0
LINE
  8
0
 10
410.662
 20
388.55
 11
414.337
 21
388.55
  0
LINE
  8
0
 10
414.337
 20
388.55
 11
414.337
 21
375.35
  0
LINE
  8
0
 10
414.337
 20
375.35
 11
410.662
 21
375.35
  0
LINE
  8
0
 10
328.662
 20
375.35
 11
328.662
 21
388.55
  0
LINE
  8
0
 10
328.662
 20
388.55
 11
332.337
 21
388.55
  0
LINE
  8
0
 10
332.337
 20
388.55
 11
332.337
 21
375.35
  0
LINE
  8
0
 10
332.337
 20
375.35
 11
328.662
 21
375.35
  0
LINE
  8
0
 10
410.662
 20
349.95
 11
410.662
 21
363.15
  0
LINE
  8
0
 10
410.662
 20
363.15
 11
414.337
 21
363.15
  0
LINE
  8
0
 10
414.337
 20
363.15
 11
414.337
 21
349.95
  0
LINE
  8
0
 10
414.337
 20
349.95
 11
410.662
 21
349.95
  0
LINE
  8
0
 10
328.662
 20
349.95
 11
328.662
 21
363.15
  0
LINE
  8
0
 10
328.662
 20
363.15
 11
332.337
 21
363.15
  0
LINE
  8
0
 10
332.337
 20
363.15
 11
332.337
 21
349.95
  0
LINE
  8
0
 10
332.337
 20
349.95
 11
328.662
 21
349.95
  0
LINE
  8
0
 10
80.1625
 20
337.75
 11
83.8375
 21
337.75
  0
LINE
  8
0
 10
83.8375
 20
337.75
 11
83.8375
 21
325.05
  0
LINE
  8
0
 10
83.8375
 20
325.05
 11
162.162
 21
325.05
  0
LINE
  8
0
 10
162.162
 20
325.05
 11
162.162
 21
337.75
  0
LINE
  8
0
 10
162.162
 20
337.75
 11
165.837
 21
337.75
  0
LINE
  8
0
 10
165.837
 20
337.75
 11
165.837
 21
325.05
  0
LINE
  8
0
 10
165.837
 20
325.05
 11
245.75
 21
325.05
  0
LINE
  8
0
 10
245.75
 20
325.05
 11
245.75
 21
337.25
  0
LINE
  8
0
 10
245.75
 20
337.25
 11
242.575
 21
337.25
  0
LINE
  8
0
 10
242.575
 20
337.25
 11
242.575
 21
350.45
  0
LINE
  8
0
 10
242.575
 20
350.45
 11
245.75
 21
350.45
  0
LINE
  8
0
 10
245.75
 20
350.45
 11
245.75
 21
362.65
  0
LINE
  8
0
 10
245.75
 20
362.65
 11
242.575
 21
362.65
  0
LINE
  8
0
 10
242.575
 20
362.65
 11
242.575
 21
375.85
  0
LINE
  8
0
 10
242.575
 20
375.85
 11
245.75
 21
375.85
  0
LINE
  8
0
 10
245.75
 20
375.85
 11
245.75
 21
388.05
  0
LINE
  8
0
 10
245.75
 20
388.05
 11
242.575
 21
388.05
  0
LINE
  8
0
 10
242.575
 20
388.05
 11
242.575
 21
400.75
  0
LINE
  8
0
 10
242.575
 20
400.75
 11
0.25
 21
400.75
  0
LINE
  8
0
 10
0.25
 20
400.75
 11
0.25
 21
388.55
  0
LINE
  8
0
 10
0.25
 20
388.55
 11
3.42499
 21
388.55
  0
LINE
  8
0
 10
3.42499
 20
388.55
 11
3.42499
 21
375.35
  0
LINE
  8
0
 10
3.42499
 20
375.35
 11
0.25
 21
375.35
  0
LINE
  8
0
 10
0.25
 20
375.35
 11
0.25
 21
363.15
  0
LINE
  8
0
 10
0.25
 20
363.15
 11
3.42499
 21
363.15
  0
LINE
  8
0
 10
3.42499
 20
363.15
 11
3.42499
 21
349.95
  0
LINE
  8
0
 10
3.42499
 20
349.95
 11
0.25
 21
349.95
  0
LINE
  8
0
 10
0.25
 20
349.95
 11
0.25
 21
337.75
  0
LINE
  8
0
 10
0.25
 20
337.75
 11
3.42499
 21
337.75
  0
LINE
  8
0
 10
3.42499
 20
337.75
 11
3.42499
 21
325.05
  0
LINE
  8
0
 10
3.42499
 20
325.05
 11
80.1625
 21
325.05
  0
LINE
  8
0
 10
80.1625
 20
325.05
 11
80.1625
 21
337.75
  0
LINE
  8
0
 10
80.1625
 20
375.35
 11
80.1625
 21
388.55
  0
LINE
  8
0
 10
80.1625
 20
388.55
 11
83.8375
 21
388.55
  0
LINE
  8
0
 10
83.8375
 20
388.55
 11
83.8375
 21
375.35
  0
LINE
  8
0
 10
83.8375
 20
375.35
 11
80.1625
 21
375.35
  0
LINE
  8
0
 10
162.162
 20
375.35
 11
162.162
 21
388.55
  0
LINE
  8
0
 10
162.162
 20
388.55
 11
165.837
 21
388.55
  0
LINE
  8
0
 10
165.837
 20
388.55
 11
165.837
 21
375.35
  0
LINE
  8
0
 10
165.837
 20
375.35
 11
162.162
 21
375.35
  0
LINE
  8
0
 10
80.1625
 20
349.95
 11
80.1625
 21
363.15
  0
LINE
  8
0
 10
80.1625
 20
363.15
 11
83.8375
 21
363.15
  0
LINE
  8
0
 10
83.8375
 20
363.15
 11
83.8375
 21
349.95
  0
LINE
  8
0
 10
83.8375
 20
349.95
 11
80.1625
 21
349.95
  0
LINE
  8
0
 10
162.162
 20
349.95
 11
162.162
 21
363.15
  0
LINE
  8
0
 10
162.162
 20
363.15
 11
165.837
 21
363.15
  0
LINE
  8
0
 10
165.837
 20
363.15
 11
165.837
 21
349.95
  0
LINE
  8
0
 10
165.837
 20
349.95
 11
162.162
 21
349.95
  0
LINE
  8
0
 10
483.75
 20
256.05
 11
480.575
 21
256.05
  0
LINE
  8
0
 10
480.575
 20
256.05
 11
480.575
 21
269.25
  0
LINE
  8
0
 10
480.575
 20
269.25
 11
483.75
 21
269.25
  0
LINE
  8
0
 10
483.75
 20
269.25
 11
483.75
 21
281.45
  0
LINE
  8
0
 10
483.75
 20
281.45
 11
480.575
 21
281.45
  0
LINE
  8
0
 10
480.575
 20
281.45
 11
480.575
 21
294.65
  0
LINE
  8
0
 10
480.575
 20
294.65
 11
483.75
 21
294.65
  0
LINE
  8
0
 10
483.75
 20
294.65
 11
483.75
 21
306.85
  0
LINE
  8
0
 10
483.75
 20
306.85
 11
480.575
 21
306.85
  0
LINE
  8
0
 10
480.575
 20
306.85
 11
480.575
 21
319.55
  0
LINE
  8
0
 10
480.575
 20
319.55
 11
0.25
 21
319.55
  0
LINE
  8
0
 10
0.25
 20
319.55
 11
0.25
 21
307.35
  0
LINE
  8
0
 10
0.25
 20
307.35
 11
3.42499
 21
307.35
  0
LINE
  8
0
 10
3.42499
 20
307.35
 11
3.42499
 21
294.15
  0
LINE
  8
0
 10
3.42499
 20
294.15
 11
0.25
 21
294.15
  0
LINE
  8
0
 10
0.25
 20
294.15
 11
0.25
 21
281.95
  0
LINE
  8
0
 10
0.25
 20
281.95
 11
3.42499
 21
281.95
  0
LINE
  8
0
 10
3.42499
 20
281.95
 11
3.42499
 21
268.75
  0
LINE
  8
0
 10
3.42499
 20
268.75
 11
0.25
 21
268.75
  0
LINE
  8
0
 10
0.25
 20
268.75
 11
0.25
 21
256.55
  0
LINE
  8
0
 10
0.25
 20
256.55
 11
3.42499
 21
256.55
  0
LINE
  8
0
 10
3.42499
 20
256.55
 11
3.42499
 21
243.85
  0
LINE
  8
0
 10
3.42499
 20
243.85
 11
483.75
 21
243.85
  0
LINE
  8
0
 10
483.75
 20
243.85
 11
483.75
 21
256.05
  0
LINE
  8
0
 10
240.162
 20
175.35
 11
243.837
 21
175.35
  0
LINE
  8
0
 10
243.837
 20
175.35
 11
243.837
 21
162.65
  0
LINE
  8
0
 10
243.837
 20
162.65
 11
483.75
 21
162.65
  0
LINE
  8
0
 10
483.75
 20
162.65
 11
483.75
 21
174.85
  0
LINE
  8
0
 10
483.75
 20
174.85
 11
480.575
 21
174.85
  0
LINE
  8
0
 10
480.575
 20
174.85
 11
480.575
 21
188.05
  0
LINE
  8
0
 10
480.575
 20
188.05
 11
483.75
 21
188.05
  0
LINE
  8
0
 10
483.75
 20
188.05
 11
483.75
 21
200.25
  0
LINE
  8
0
 10
483.75
 20
200.25
 11
480.575
 21
200.25
  0
LINE
  8
0
 10
480.575
 20
200.25
 11
480.575
 21
213.45
  0
LINE
  8
0
 10
480.575
 20
213.45
 11
483.75
 21
213.45
  0
LINE
  8
0
 10
483.75
 20
213.45
 11
483.75
 21
225.65
  0
LINE
  8
0
 10
483.75
 20
225.65
 11
480.575
 21
225.65
  0
LINE
  8
0
 10
480.575
 20
225.65
 11
480.575
 21
238.35
  0
LINE
  8
0
 10
480.575
 20
238.35
 11
0.25
 21
238.35
  0
LINE
  8
0
 10
0.25
 20
238.35
 11
0.25
 21
226.15
  0
LINE
  8
0
 10
0.25
 20
226.15
 11
3.42499
 21
226.15
  0
LINE
  8
0
 10
3.42499
 20
226.15
 11
3.42499
 21
212.95
  0
LINE
  8
0
 10
3.42499
 20
212.95
 11
0.25
 21
212.95
  0
LINE
  8
0
 10
0.25
 20
212.95
 11
0.25
 21
200.75
  0
LINE
  8
0
 10
0.25
 20
200.75
 11
3.42499
 21
200.75
  0
LINE
  8
0
 10
3.42499
 20
200.75
 11
3.42499
 21
187.55
  0
LINE
  8
0
 10
3.42499
 20
187.55
 11
0.25
 21
187.55
  0
LINE
  8
0
 10
0.25
 20
187.55
 11
0.25
 21
175.35
  0
LINE
  8
0
 10
0.25
 20
175.35
 11
3.42499
 21
175.35
  0
LINE
  8
0
 10
3.42499
 20
175.35
 11
3.42499
 21
162.65
  0
LINE
  8
0
 10
3.42499
 20
162.65
 11
240.162
 21
162.65
  0
LINE
  8
0
 10
240.162
 20
162.65
 11
240.162
 21
175.35
  0
LINE
  8
0
 10
240.162
 20
212.95
 11
240.162
 21
226.15
  0
LINE
  8
0
 10
240.162
 20
226.15
 11
243.837
 21
226.15
  0
LINE
  8
0
 10
243.837
 20
226.15
 11
243.837
 21
212.95
  0
LINE
  8
0
 10
243.837
 20
212.95
 11
240.162
 21
212.95
  0
LINE
  8
0
 10
240.162
 20
187.55
 11
240.162
 21
200.75
  0
LINE
  8
0
 10
240.162
 20
200.75
 11
243.837
 21
200.75
  0
LINE
  8
0
 10
243.837
 20
200.75
 11
243.837
 21
187.55
  0
LINE
  8
0
 10
243.837
 20
187.55
 11
240.162
 21
187.55
  0
LINE
  8
0
 10
514.15
 20
3.42499
 11
527.35
 21
3.42499
  0
LINE
  8
0
 10
527.35
 20
3.42499
 11
527.35
 21
0.25
  0
LINE
  8
0
 10
527.35
 20
0.25
 11
539.55
 21
0.25
  0
LINE
  8
0
 10
539.55
 20
0.25
 11
539.55
 21
3.42499
  0
LINE
  8
0
 10
539.55
 20
3.42499
 11
552.75
 21
3.42499
  0
LINE
  8
0
 10
552.75
 20
3.42499
 11
552.75
 21
0.25
  0
LINE
  8
0
 10
552.75
 20
0.25
 11
564.95
 21
0.25
  0
LINE
  8
0
 10
564.95
 20
0.25
 11
564.95
 21
165.337
  0
LINE
  8
0
 10
564.95
 20
165.337
 11
552.75
 21
165.337
  0
LINE
  8
0
 10
552.75
 20
165.337
 11
552.75
 21
162.162
  0
LINE
  8
0
 10
552.75
 20
162.162
 11
539.55
 21
162.162
  0
LINE
  8
0
 10
539.55
 20
162.162
 11
539.55
 21
165.337
  0
LINE
  8
0
 10
539.55
 20
165.337
 11
527.35
 21
165.337
  0
LINE
  8
0
 10
527.35
 20
165.337
 11
527.35
 21
162.162
  0
LINE
  8
0
 10
527.35
 20
162.162
 11
514.15
 21
162.162
  0
LINE
  8
0
 10
514.15
 20
162.162
 11
514.15
 21
165.337
  0
LINE
  8
0
 10
514.15
 20
165.337
 11
501.95
 21
165.337
  0
LINE
  8
0
 10
501.95
 20
165.337
 11
501.95
 21
162.162
  0
LINE
  8
0
 10
501.95
 20
162.162
 11
489.25
 21
162.162
  0
LINE
  8
0
 10
489.25
 20
162.162
 11
488.75
 21
83.8375
  0
LINE
  8
0
 10
488.75
 20
83.8375
 11
526.85
 21
83.8375
  0
LINE
  8
0
 10
526.85
 20
83.8375
 11
526.85
 21
80.1625
  0
LINE
  8
0
 10
526.85
 20
80.1625
 11
488.75
 21
80.1625
  0
LINE
  8
0
 10
488.75
 20
80.1625
 11
489.25
 21
3.42499
  0
LINE
  8
0
 10
489.25
 20
3.42499
 11
501.95
 21
3.42499
  0
LINE
  8
0
 10
501.95
 20
3.42499
 11
501.95
 21
0.25
  0
LINE
  8
0
 10
501.95
 20
0.25
 11
514.15
 21
0.25
  0
LINE
  8
0
 10
514.15
 20
0.25
 11
514.15
 21
3.42499
  0
LINE
  8
0
 10
240.162
 20
119.55
 11
243.837
 21
119.55
  0
LINE
  8
0
 10
243.837
 20
119.55
 11
243.837
 21
81.45
  0
LINE
  8
0
 10
243.837
 20
81.45
 11
483.75
 21
81.45
  0
LINE
  8
0
 10
483.75
 20
81.45
 11
483.75
 21
93.65
  0
LINE
  8
0
 10
483.75
 20
93.65
 11
480.575
 21
93.65
  0
LINE
  8
0
 10
480.575
 20
93.65
 11
480.575
 21
106.85
  0
LINE
  8
0
 10
480.575
 20
106.85
 11
483.75
 21
106.85
  0
LINE
  8
0
 10
483.75
 20
106.85
 11
483.75
 21
119.05
  0
LINE
  8
0
 10
483.75
 20
119.05
 11
480.575
 21
119.05
  0
LINE
  8
0
 10
480.575
 20
119.05
 11
480.575
 21
132.25
  0
LINE
  8
0
 10
480.575
 20
132.25
 11
483.75
 21
132.25
  0
LINE
  8
0
 10
483.75
 20
132.25
 11
483.75
 21
144.45
  0
LINE
  8
0
 10
483.75
 20
144.45
 11
480.575
 21
144.45
  0
LINE
  8
0
 10
480.575
 20
144.45
 11
480.575
 21
157.15
  0
LINE
  8
0
 10
480.575
 20
157.15
 11
3.42499
 21
157.15
  0
LINE
  8
0
 10
3.42499
 20
157.15
 11
3.42499
 21
144.45
  0
LINE
  8
0
 10
3.42499
 20
144.45
 11
0.25
 21
144.45
  0
LINE
  8
0
 10
0.25
 20
144.45
 11
0.25
 21
132.25
  0
LINE
  8
0
 10
0.25
 20
132.25
 11
3.42499
 21
132.25
  0
LINE
  8
0
 10
3.42499
 20
132.25
 11
3.42499
 21
119.05
  0
LINE
  8
0
 10
3.42499
 20
119.05
 11
0.25
 21
119.05
  0
LINE
  8
0
 10
0.25
 20
119.05
 11
0.25
 21
106.85
  0
LINE
  8
0
 10
0.25
 20
106.85
 11
3.42499
 21
106.85
  0
LINE
  8
0
 10
3.42499
 20
106.85
 11
3.42499
 21
93.65
  0
LINE
  8
0
 10
3.42499
 20
93.65
 11
0.25
 21
93.65
  0
LINE
  8
0
 10
0.25
 20
93.65
 11
0.25
 21
81.45
  0
LINE
  8
0
 10
0.25
 20
81.45
 11
240.162
 21
81.45
  0
LINE
  8
0
 10
240.162
 20
81.45
 11
240.162
 21
119.55
  0
LINE
  8
0
 10
240.162
 20
12.95
 11
243.837
 21
12.95
  0
LINE
  8
0
 10
243.837
 20
12.95
 11
243.837
 21
0.25
  0
LINE
  8
0
 10
243.837
 20
0.25
 11
483.75
 21
0.25
  0
LINE
  8
0
 10
483.75
 20
0.25
 11
483.75
 21
12.45
  0
LINE
  8
0
 10
483.75
 20
12.45
 11
480.575
 21
12.45
  0
LINE
  8
0
 10
480.575
 20
12.45
 11
480.575
 21
25.65
  0
LINE
  8
0
 10
480.575
 20
25.65
 11
483.75
 21
25.65
  0
LINE
  8
0
 10
483.75
 20
25.65
 11
483.75
 21
37.85
  0
LINE
  8
0
 10
483.75
 20
37.85
 11
480.575
 21
37.85
  0
LINE
  8
0
 10
480.575
 20
37.85
 11
480.575
 21
51.05
  0
LINE
  8
0
 10
480.575
 20
51.05
 11
483.75
 21
51.05
  0
LINE
  8
0
 10
483.75
 20
51.05
 11
483.75
 21
63.25
  0
LINE
  8
0
 10
483.75
 20
63.25
 11
480.575
 21
63.25
  0
LINE
  8
0
 10
480.575
 20
63.25
 11
480.575
 21
75.95
  0
LINE
  8
0
 10
480.575
 20
75.95
 11
3.42499
 21
75.95
  0
LINE
  8
0
 10
3.42499
 20
75.95
 11
3.42499
 21
63.25
  0
LINE
  8
0
 10
3.42499
 20
63.25
 11
0.25
 21
63.25
  0
LINE
  8
0
 10
0.25
 20
63.25
 11
0.25
 21
51.05
  0
LINE
  8
0
 10
0.25
 20
51.05
 11
3.42499
 21
51.05
  0
LINE
  8
0
 10
3.42499
 20
51.05
 11
3.42499
 21
37.85
  0
LINE
  8
0
 10
3.42499
 20
37.85
 11
0.25
 21
37.85
  0
LINE
  8
0
 10
0.25
 20
37.85
 11
0.25
 21
25.65
  0
LINE
  8
0
 10
0.25
 20
25.65
 11
3.42499
 21
25.65
  0
LINE
  8
0
 10
3.42499
 20
25.65
 11
3.42499
 21
12.45
  0
LINE
  8
0
 10
3.42499
 20
12.45
 11
0.25
 21
12.45
  0
LINE
  8
0
 10
0.25
 20
12.45
 11
0.25
 21
0.25
  0
LINE
  8
0
 10
0.25
 20
0.25
 11
240.162
 21
0.25
  0
LINE
  8
0
 10
240.162
 20
0.25
 11
240.162
 21
12.95
  0
LINE
  8
0
 10
240.162
 20
50.55
 11
240.162
 21
63.75
  0
LINE
  8
0
 10
240.162
 20
63.75
 11
243.837
 21
63.75
  0
LINE
  8
0
 10
243.837
 20
63.75
 11
243.837
 21
50.55
  0
LINE
  8
0
 10
243.837
 20
50.55
 11
240.162
 21
50.55
  0
LINE
  8
0
 10
240.162
 20
25.15
 11
240.162
 21
38.35
  0
LINE
  8
0
 10
240.162
 20
38.35
 11
243.837
 21
38.35
  0
LINE
  8
0
 10
243.837
 20
38.35
 11
243.837
 21
25.15
  0
LINE
  8
0
 10
243.837
 20
25.15
 11
240.162
 21
25.15
  0
ENDSEC
  0
SECTION
  2
OBJECTS
  0
DICTIONARY
  0
ENDSEC
  0
EOF
