<?xml version="1.0" standalone="no"?>
<!DOCTYPE svg PUBLIC "-//W3C//DTD SVG 1.1//EN" "http://www.w3.org/Graphics/SVG/1.1/DTD/svg11.dtd">
<svg width="489mm" height="594mm" viewBox="0 -594 489 594" xmlns="http://www.w3.org/2000/svg" version="1.1">
<title>OpenSCAD Model</title>
<path d="
M 488.8,-529.7 L 483.4,-529.7 L 483.4,-542.8 L 488.8,-542.8 L 488.8,-555.1 L 483.4,-555.1
 L 483.4,-568.2 L 488.8,-568.2 L 488.8,-580.5 L 483.4,-580.5 L 483.4,-593.2 L 0.199997,-593.2
 L 0.199997,-580.9 L 5.59999,-580.9 L 5.59999,-567.8 L 0.199997,-567.8 L 0.199997,-555.5 L 5.59999,-555.5
 L 5.59999,-542.4 L 0.199997,-542.4 L 0.199997,-530.1 L 5.59999,-530.1 L 5.59999,-517.4 L 488.8,-517.4
 z
M 79.7667,-443.9 L 85.5667,-443.9 L 85.5667,-431.2 L 162.433,-431.2 L 162.433,-443.9 L 168.233,-443.9
 L 168.233,-431.2 L 247.8,-431.2 L 247.8,-443.5 L 242.4,-443.5 L 242.4,-456.6 L 247.8,-456.6
 L 247.8,-468.9 L 242.4,-468.9 L 242.4,-482 L 247.8,-482 L 247.8,-494.3 L 242.4,-494.3
 L 242.4,-507 L 0.199997,-507 L 0.199997,-494.7 L 5.59999,-494.7 L 5.59999,-481.6 L 0.199997,-481.6
 L 0.199997,-469.3 L 5.59999,-469.3 L 5.59999,-456.2 L 0.199997,-456.2 L 0.199997,-443.9 L 5.59999,-443.9
 L 5.59999,-431.2 L 79.7667,-431.2 z
M 162.433,-481.6 L 162.433,-494.7 L 168.233,-494.7 L 168.233,-481.6 z
M 79.7667,-481.6 L 79.7667,-494.7 L 85.5667,-494.7 L 85.5667,-481.6 z
M 162.433,-456.2 L 162.433,-469.3 L 168.233,-469.3 L 168.233,-456.2 z
M 79.7667,-456.2 L 79.7667,-469.3 L 85.5667,-469.3 L 85.5667,-456.2 z
M 79.7667,-357.7 L 85.5667,-357.7 L 85.5667,-345 L 162.433,-345 L 162.433,-357.7 L 168.233,-357.7
 L 168.233,-345 L 247.8,-345 L 247.8,-357.3 L 242.4,-357.3 L 242.4,-370.4 L 247.8,-370.4
 L 247.8,-382.7 L 242.4,-382.7 L 242.4,-395.8 L 247.8,-395.8 L 247.8,-408.1 L 242.4,-408.1
 L 242.4,-420.8 L 0.199997,-420.8 L 0.199997,-408.5 L 5.59999,-408.5 L 5.59999,-395.4 L 0.199997,-395.4
 L 0.199997,-383.1 L 5.59999,-383.1 L 5.59999,-370 L 0.199997,-370 L 0.199997,-357.7 L 5.59999,-357.7
 L 5.59999,-345 L 79.7667,-345 z
M 162.433,-395.4 L 162.433,-408.5 L 168.233,-408.5 L 168.233,-395.4 z
M 79.7667,-395.4 L 79.7667,-408.5 L 85.5667,-408.5 L 85.5667,-395.4 z
M 162.433,-370 L 162.433,-383.1 L 168.233,-383.1 L 168.233,-370 z
M 79.7667,-370 L 79.7667,-383.1 L 85.5667,-383.1 L 85.5667,-370 z
M 241.6,-271.5 L 247.4,-271.5 L 247.4,-258.8 L 488.8,-258.8 L 488.8,-271.1 L 483.4,-271.1
 L 483.4,-284.2 L 488.8,-284.2 L 488.8,-296.5 L 483.4,-296.5 L 483.4,-309.6 L 488.8,-309.6
 L 488.8,-321.9 L 483.4,-321.9 L 483.4,-334.6 L 0.199997,-334.6 L 0.199997,-322.3 L 5.59999,-322.3
 L 5.59999,-309.2 L 0.199997,-309.2 L 0.199997,-296.9 L 5.59999,-296.9 L 5.59999,-283.8 L 0.199997,-283.8
 L 0.199997,-271.5 L 5.59999,-271.5 L 5.59999,-258.8 L 241.6,-258.8 z
M 241.6,-309.2 L 241.6,-322.3 L 247.4,-322.3 L 247.4,-309.2 z
M 241.6,-283.8 L 241.6,-296.9 L 247.4,-296.9 L 247.4,-283.8 z
M 241.6,-210.7 L 247.4,-210.7 L 247.4,-172.6 L 488.8,-172.6 L 488.8,-184.9 L 483.4,-184.9
 L 483.4,-198 L 488.8,-198 L 488.8,-210.3 L 483.4,-210.3 L 483.4,-223.4 L 488.8,-223.4
 L 488.8,-235.7 L 483.4,-235.7 L 483.4,-248.4 L 5.59999,-248.4 L 5.59999,-235.7 L 0.199997,-235.7
 L 0.199997,-223.4 L 5.59999,-223.4 L 5.59999,-210.3 L 0.199997,-210.3 L 0.199997,-198 L 5.59999,-198
 L 5.59999,-184.9 L 0.199997,-184.9 L 0.199997,-172.6 L 241.6,-172.6 z
M 241.6,-99.1 L 247.4,-99.1 L 247.4,-86.4 L 488.8,-86.4 L 488.8,-98.7 L 483.4,-98.7
 L 483.4,-111.8 L 488.8,-111.8 L 488.8,-124.1 L 483.4,-124.1 L 483.4,-137.2 L 488.8,-137.2
 L 488.8,-149.5 L 483.4,-149.5 L 483.4,-162.2 L 5.59999,-162.2 L 5.59999,-149.5 L 0.199997,-149.5
 L 0.199997,-137.2 L 5.59999,-137.2 L 5.59999,-124.1 L 0.199997,-124.1 L 0.199997,-111.8 L 5.59999,-111.8
 L 5.59999,-98.7 L 0.199997,-98.7 L 0.199997,-86.4 L 241.6,-86.4 z
M 241.6,-136.8 L 241.6,-149.9 L 247.4,-149.9 L 247.4,-136.8 z
M 241.6,-111.4 L 241.6,-124.5 L 247.4,-124.5 L 247.4,-111.4 z
M 165.133,-12.5 L 159.733,-12.5 L 159.733,-25.6 L 165.133,-25.6 L 165.133,-37.9 L 159.733,-37.9
 L 159.733,-51 L 165.133,-51 L 165.133,-63.3 L 159.733,-63.3 L 159.733,-76 L 85.5667,-76.4
 L 85.5667,-38.3 L 79.7667,-38.3 L 79.7667,-76.4 L 5.59999,-76 L 5.59999,-63.3 L 0.199997,-63.3
 L 0.199997,-51 L 5.59999,-51 L 5.59999,-37.9 L 0.199997,-37.9 L 0.199997,-25.6 L 5.59999,-25.6
 L 5.59999,-12.5 L 0.199997,-12.5 L 0.199997,-0.199997 L 165.133,-0.199997 z
" stroke="black" fill="lightgray" stroke-width="0.5"/>
</svg>
