  0
SECTION
  2
BLOCKS
  0
ENDSEC
  0
SECTION
  2
ENTITIES
  0
LINE
  8
0
 10
318.183
 20
316.483
 11
321.483
 21
316.483
  0
LINE
  8
0
 10
321.483
 20
316.483
 11
321.483
 21
304.63
  0
LINE
  8
0
 10
321.483
 20
304.63
 11
397.517
 21
304.63
  0
LINE
  8
0
 10
397.517
 20
304.63
 11
397.517
 21
316.483
  0
LINE
  8
0
 10
397.517
 20
316.483
 11
400.817
 21
316.483
  0
LINE
  8
0
 10
400.817
 20
316.483
 11
400.817
 21
304.63
  0
LINE
  8
0
 10
400.817
 20
304.63
 11
478.35
 21
304.63
  0
LINE
  8
0
 10
478.35
 20
304.63
 11
478.35
 21
316.183
  0
LINE
  8
0
 10
478.35
 20
316.183
 11
475.35
 21
316.183
  0
LINE
  8
0
 10
475.35
 20
316.183
 11
475.35
 21
328.337
  0
LINE
  8
0
 10
475.35
 20
328.337
 11
478.35
 21
328.337
  0
LINE
  8
0
 10
478.35
 20
328.337
 11
478.35
 21
339.89
  0
LINE
  8
0
 10
478.35
 20
339.89
 11
475.35
 21
339.89
  0
LINE
  8
0
 10
475.35
 20
339.89
 11
475.35
 21
352.043
  0
LINE
  8
0
 10
475.35
 20
352.043
 11
478.35
 21
352.043
  0
LINE
  8
0
 10
478.35
 20
352.043
 11
478.35
 21
363.597
  0
LINE
  8
0
 10
478.35
 20
363.597
 11
475.35
 21
363.597
  0
LINE
  8
0
 10
475.35
 20
363.597
 11
475.35
 21
375.45
  0
LINE
  8
0
 10
475.35
 20
375.45
 11
240.65
 21
375.45
  0
LINE
  8
0
 10
240.65
 20
375.45
 11
240.65
 21
363.897
  0
LINE
  8
0
 10
240.65
 20
363.897
 11
243.65
 21
363.897
  0
LINE
  8
0
 10
243.65
 20
363.897
 11
243.65
 21
351.743
  0
LINE
  8
0
 10
243.65
 20
351.743
 11
240.65
 21
351.743
  0
LINE
  8
0
 10
240.65
 20
351.743
 11
240.65
 21
340.19
  0
LINE
  8
0
 10
240.65
 20
340.19
 11
243.65
 21
340.19
  0
LINE
  8
0
 10
243.65
 20
340.19
 11
243.65
 21
328.037
  0
LINE
  8
0
 10
243.65
 20
328.037
 11
240.65
 21
328.037
  0
LINE
  8
0
 10
240.65
 20
328.037
 11
240.65
 21
316.483
  0
LINE
  8
0
 10
240.65
 20
316.483
 11
243.65
 21
316.483
  0
LINE
  8
0
 10
243.65
 20
316.483
 11
243.65
 21
304.63
  0
LINE
  8
0
 10
243.65
 20
304.63
 11
318.183
 21
304.63
  0
LINE
  8
0
 10
318.183
 20
304.63
 11
318.183
 21
316.483
  0
LINE
  8
0
 10
397.517
 20
351.743
 11
397.517
 21
363.897
  0
LINE
  8
0
 10
397.517
 20
363.897
 11
400.817
 21
363.897
  0
LINE
  8
0
 10
400.817
 20
363.897
 11
400.817
 21
351.743
  0
LINE
  8
0
 10
400.817
 20
351.743
 11
397.517
 21
351.743
  0
LINE
  8
0
 10
318.183
 20
351.743
 11
318.183
 21
363.897
  0
LINE
  8
0
 10
318.183
 20
363.897
 11
321.483
 21
363.897
  0
LINE
  8
0
 10
321.483
 20
363.897
 11
321.483
 21
351.743
  0
LINE
  8
0
 10
321.483
 20
351.743
 11
318.183
 21
351.743
  0
LINE
  8
0
 10
397.517
 20
328.037
 11
397.517
 21
340.19
  0
LINE
  8
0
 10
397.517
 20
340.19
 11
400.817
 21
340.19
  0
LINE
  8
0
 10
400.817
 20
340.19
 11
400.817
 21
328.037
  0
LINE
  8
0
 10
400.817
 20
328.037
 11
397.517
 21
328.037
  0
LINE
  8
0
 10
318.183
 20
328.037
 11
318.183
 21
340.19
  0
LINE
  8
0
 10
318.183
 20
340.19
 11
321.483
 21
340.19
  0
LINE
  8
0
 10
321.483
 20
340.19
 11
321.483
 21
328.037
  0
LINE
  8
0
 10
321.483
 20
328.037
 11
318.183
 21
328.037
  0
LINE
  8
0
 10
77.6833
 20
316.483
 11
80.9833
 21
316.483
  0
LINE
  8
0
 10
80.9833
 20
316.483
 11
80.9833
 21
304.63
  0
LINE
  8
0
 10
80.9833
 20
304.63
 11
157.017
 21
304.63
  0
LINE
  8
0
 10
157.017
 20
304.63
 11
157.017
 21
316.483
  0
LINE
  8
0
 10
157.017
 20
316.483
 11
160.317
 21
316.483
  0
LINE
  8
0
 10
160.317
 20
316.483
 11
160.317
 21
304.63
  0
LINE
  8
0
 10
160.317
 20
304.63
 11
237.85
 21
304.63
  0
LINE
  8
0
 10
237.85
 20
304.63
 11
237.85
 21
316.183
  0
LINE
  8
0
 10
237.85
 20
316.183
 11
234.85
 21
316.183
  0
LINE
  8
0
 10
234.85
 20
316.183
 11
234.85
 21
328.337
  0
LINE
  8
0
 10
234.85
 20
328.337
 11
237.85
 21
328.337
  0
LINE
  8
0
 10
237.85
 20
328.337
 11
237.85
 21
339.89
  0
LINE
  8
0
 10
237.85
 20
339.89
 11
234.85
 21
339.89
  0
LINE
  8
0
 10
234.85
 20
339.89
 11
234.85
 21
352.043
  0
LINE
  8
0
 10
234.85
 20
352.043
 11
237.85
 21
352.043
  0
LINE
  8
0
 10
237.85
 20
352.043
 11
237.85
 21
363.597
  0
LINE
  8
0
 10
237.85
 20
363.597
 11
234.85
 21
363.597
  0
LINE
  8
0
 10
234.85
 20
363.597
 11
234.85
 21
375.45
  0
LINE
  8
0
 10
234.85
 20
375.45
 11
0.149994
 21
375.45
  0
LINE
  8
0
 10
0.149994
 20
375.45
 11
0.149994
 21
363.897
  0
LINE
  8
0
 10
0.149994
 20
363.897
 11
3.14999
 21
363.897
  0
LINE
  8
0
 10
3.14999
 20
363.897
 11
3.14999
 21
351.743
  0
LINE
  8
0
 10
3.14999
 20
351.743
 11
0.149994
 21
351.743
  0
LINE
  8
0
 10
0.149994
 20
351.743
 11
0.149994
 21
340.19
  0
LINE
  8
0
 10
0.149994
 20
340.19
 11
3.14999
 21
340.19
  0
LINE
  8
0
 10
3.14999
 20
340.19
 11
3.14999
 21
328.037
  0
LINE
  8
0
 10
3.14999
 20
328.037
 11
0.149994
 21
328.037
  0
LINE
  8
0
 10
0.149994
 20
328.037
 11
0.149994
 21
316.483
  0
LINE
  8
0
 10
0.149994
 20
316.483
 11
3.14999
 21
316.483
  0
LINE
  8
0
 10
3.14999
 20
316.483
 11
3.14999
 21
304.63
  0
LINE
  8
0
 10
3.14999
 20
304.63
 11
77.6833
 21
304.63
  0
LINE
  8
0
 10
77.6833
 20
304.63
 11
77.6833
 21
316.483
  0
LINE
  8
0
 10
77.6833
 20
351.743
 11
77.6833
 21
363.897
  0
LINE
  8
0
 10
77.6833
 20
363.897
 11
80.9833
 21
363.897
  0
LINE
  8
0
 10
80.9833
 20
363.897
 11
80.9833
 21
351.743
  0
LINE
  8
0
 10
80.9833
 20
351.743
 11
77.6833
 21
351.743
  0
LINE
  8
0
 10
157.017
 20
351.743
 11
157.017
 21
363.897
  0
LINE
  8
0
 10
157.017
 20
363.897
 11
160.317
 21
363.897
  0
LINE
  8
0
 10
160.317
 20
363.897
 11
160.317
 21
351.743
  0
LINE
  8
0
 10
160.317
 20
351.743
 11
157.017
 21
351.743
  0
LINE
  8
0
 10
77.6833
 20
328.037
 11
77.6833
 21
340.19
  0
LINE
  8
0
 10
77.6833
 20
340.19
 11
80.9833
 21
340.19
  0
LINE
  8
0
 10
80.9833
 20
340.19
 11
80.9833
 21
328.037
  0
LINE
  8
0
 10
80.9833
 20
328.037
 11
77.6833
 21
328.037
  0
LINE
  8
0
 10
157.017
 20
328.037
 11
157.017
 21
340.19
  0
LINE
  8
0
 10
157.017
 20
340.19
 11
160.317
 21
340.19
  0
LINE
  8
0
 10
160.317
 20
340.19
 11
160.317
 21
328.037
  0
LINE
  8
0
 10
160.317
 20
328.037
 11
157.017
 21
328.037
  0
LINE
  8
0
 10
462.85
 20
240.063
 11
459.85
 21
240.063
  0
LINE
  8
0
 10
459.85
 20
240.063
 11
459.85
 21
252.217
  0
LINE
  8
0
 10
459.85
 20
252.217
 11
462.85
 21
252.217
  0
LINE
  8
0
 10
462.85
 20
252.217
 11
462.85
 21
263.77
  0
LINE
  8
0
 10
462.85
 20
263.77
 11
459.85
 21
263.77
  0
LINE
  8
0
 10
459.85
 20
263.77
 11
459.85
 21
275.923
  0
LINE
  8
0
 10
459.85
 20
275.923
 11
462.85
 21
275.923
  0
LINE
  8
0
 10
462.85
 20
275.923
 11
462.85
 21
287.477
  0
LINE
  8
0
 10
462.85
 20
287.477
 11
459.85
 21
287.477
  0
LINE
  8
0
 10
459.85
 20
287.477
 11
459.85
 21
299.33
  0
LINE
  8
0
 10
459.85
 20
299.33
 11
0.149994
 21
299.33
  0
LINE
  8
0
 10
0.149994
 20
299.33
 11
0.149994
 21
287.777
  0
LINE
  8
0
 10
0.149994
 20
287.777
 11
3.14999
 21
287.777
  0
LINE
  8
0
 10
3.14999
 20
287.777
 11
3.14999
 21
275.623
  0
LINE
  8
0
 10
3.14999
 20
275.623
 11
0.149994
 21
275.623
  0
LINE
  8
0
 10
0.149994
 20
275.623
 11
0.149994
 21
264.07
  0
LINE
  8
0
 10
0.149994
 20
264.07
 11
3.14999
 21
264.07
  0
LINE
  8
0
 10
3.14999
 20
264.07
 11
3.14999
 21
251.917
  0
LINE
  8
0
 10
3.14999
 20
251.917
 11
0.149994
 21
251.917
  0
LINE
  8
0
 10
0.149994
 20
251.917
 11
0.149994
 21
240.363
  0
LINE
  8
0
 10
0.149994
 20
240.363
 11
3.14999
 21
240.363
  0
LINE
  8
0
 10
3.14999
 20
240.363
 11
3.14999
 21
228.51
  0
LINE
  8
0
 10
3.14999
 20
228.51
 11
462.85
 21
228.51
  0
LINE
  8
0
 10
462.85
 20
228.51
 11
462.85
 21
240.063
  0
LINE
  8
0
 10
229.85
 20
164.243
 11
233.15
 21
164.243
  0
LINE
  8
0
 10
233.15
 20
164.243
 11
233.15
 21
152.39
  0
LINE
  8
0
 10
233.15
 20
152.39
 11
462.85
 21
152.39
  0
LINE
  8
0
 10
462.85
 20
152.39
 11
462.85
 21
163.943
  0
LINE
  8
0
 10
462.85
 20
163.943
 11
459.85
 21
163.943
  0
LINE
  8
0
 10
459.85
 20
163.943
 11
459.85
 21
176.097
  0
LINE
  8
0
 10
459.85
 20
176.097
 11
462.85
 21
176.097
  0
LINE
  8
0
 10
462.85
 20
176.097
 11
462.85
 21
187.65
  0
LINE
  8
0
 10
462.85
 20
187.65
 11
459.85
 21
187.65
  0
LINE
  8
0
 10
459.85
 20
187.65
 11
459.85
 21
199.803
  0
LINE
  8
0
 10
459.85
 20
199.803
 11
462.85
 21
199.803
  0
LINE
  8
0
 10
462.85
 20
199.803
 11
462.85
 21
211.357
  0
LINE
  8
0
 10
462.85
 20
211.357
 11
459.85
 21
211.357
  0
LINE
  8
0
 10
459.85
 20
211.357
 11
459.85
 21
223.21
  0
LINE
  8
0
 10
459.85
 20
223.21
 11
0.149994
 21
223.21
  0
LINE
  8
0
 10
0.149994
 20
223.21
 11
0.149994
 21
211.657
  0
LINE
  8
0
 10
0.149994
 20
211.657
 11
3.14999
 21
211.657
  0
LINE
  8
0
 10
3.14999
 20
211.657
 11
3.14999
 21
199.503
  0
LINE
  8
0
 10
3.14999
 20
199.503
 11
0.149994
 21
199.503
  0
LINE
  8
0
 10
0.149994
 20
199.503
 11
0.149994
 21
187.95
  0
LINE
  8
0
 10
0.149994
 20
187.95
 11
3.14999
 21
187.95
  0
LINE
  8
0
 10
3.14999
 20
187.95
 11
3.14999
 21
175.797
  0
LINE
  8
0
 10
3.14999
 20
175.797
 11
0.149994
 21
175.797
  0
LINE
  8
0
 10
0.149994
 20
175.797
 11
0.149994
 21
164.243
  0
LINE
  8
0
 10
0.149994
 20
164.243
 11
3.14999
 21
164.243
  0
LINE
  8
0
 10
3.14999
 20
164.243
 11
3.14999
 21
152.39
  0
LINE
  8
0
 10
3.14999
 20
152.39
 11
229.85
 21
152.39
  0
LINE
  8
0
 10
229.85
 20
152.39
 11
229.85
 21
164.243
  0
LINE
  8
0
 10
229.85
 20
199.503
 11
229.85
 21
211.657
  0
LINE
  8
0
 10
229.85
 20
211.657
 11
233.15
 21
211.657
  0
LINE
  8
0
 10
233.15
 20
211.657
 11
233.15
 21
199.503
  0
LINE
  8
0
 10
233.15
 20
199.503
 11
229.85
 21
199.503
  0
LINE
  8
0
 10
229.85
 20
175.797
 11
229.85
 21
187.95
  0
LINE
  8
0
 10
229.85
 20
187.95
 11
233.15
 21
187.95
  0
LINE
  8
0
 10
233.15
 20
187.95
 11
233.15
 21
175.797
  0
LINE
  8
0
 10
233.15
 20
175.797
 11
229.85
 21
175.797
  0
LINE
  8
0
 10
491.557
 20
3.14999
 11
503.71
 21
3.14999
  0
LINE
  8
0
 10
503.71
 20
3.14999
 11
503.71
 21
0.149994
  0
LINE
  8
0
 10
503.71
 20
0.149994
 11
515.263
 21
0.149994
  0
LINE
  8
0
 10
515.263
 20
0.149994
 11
515.263
 21
3.14999
  0
LINE
  8
0
 10
515.263
 20
3.14999
 11
527.417
 21
3.14999
  0
LINE
  8
0
 10
527.417
 20
3.14999
 11
527.417
 21
0.149994
  0
LINE
  8
0
 10
527.417
 20
0.149994
 11
538.97
 21
0.149994
  0
LINE
  8
0
 10
538.97
 20
0.149994
 11
538.97
 21
160.017
  0
LINE
  8
0
 10
538.97
 20
160.017
 11
527.417
 21
160.017
  0
LINE
  8
0
 10
527.417
 20
160.017
 11
527.417
 21
157.017
  0
LINE
  8
0
 10
527.417
 20
157.017
 11
515.263
 21
157.017
  0
LINE
  8
0
 10
515.263
 20
157.017
 11
515.263
 21
160.017
  0
LINE
  8
0
 10
515.263
 20
160.017
 11
503.71
 21
160.017
  0
LINE
  8
0
 10
503.71
 20
160.017
 11
503.71
 21
157.017
  0
LINE
  8
0
 10
503.71
 20
157.017
 11
491.557
 21
157.017
  0
LINE
  8
0
 10
491.557
 20
157.017
 11
491.557
 21
160.017
  0
LINE
  8
0
 10
491.557
 20
160.017
 11
480.003
 21
160.017
  0
LINE
  8
0
 10
480.003
 20
160.017
 11
480.003
 21
157.017
  0
LINE
  8
0
 10
480.003
 20
157.017
 11
468.15
 21
157.017
  0
LINE
  8
0
 10
468.15
 20
157.017
 11
467.85
 21
80.9833
  0
LINE
  8
0
 10
467.85
 20
80.9833
 11
503.41
 21
80.9833
  0
LINE
  8
0
 10
503.41
 20
80.9833
 11
503.41
 21
77.6833
  0
LINE
  8
0
 10
503.41
 20
77.6833
 11
467.85
 21
77.6833
  0
LINE
  8
0
 10
467.85
 20
77.6833
 11
468.15
 21
3.14999
  0
LINE
  8
0
 10
468.15
 20
3.14999
 11
480.003
 21
3.14999
  0
LINE
  8
0
 10
480.003
 20
3.14999
 11
480.003
 21
0.149994
  0
LINE
  8
0
 10
480.003
 20
0.149994
 11
491.557
 21
0.149994
  0
LINE
  8
0
 10
491.557
 20
0.149994
 11
491.557
 21
3.14999
  0
LINE
  8
0
 10
229.85
 20
111.83
 11
233.15
 21
111.83
  0
LINE
  8
0
 10
233.15
 20
111.83
 11
233.15
 21
76.27
  0
LINE
  8
0
 10
233.15
 20
76.27
 11
462.85
 21
76.27
  0
LINE
  8
0
 10
462.85
 20
76.27
 11
462.85
 21
87.8233
  0
LINE
  8
0
 10
462.85
 20
87.8233
 11
459.85
 21
87.8233
  0
LINE
  8
0
 10
459.85
 20
87.8233
 11
459.85
 21
99.9767
  0
LINE
  8
0
 10
459.85
 20
99.9767
 11
462.85
 21
99.9767
  0
LINE
  8
0
 10
462.85
 20
99.9767
 11
462.85
 21
111.53
  0
LINE
  8
0
 10
462.85
 20
111.53
 11
459.85
 21
111.53
  0
LINE
  8
0
 10
459.85
 20
111.53
 11
459.85
 21
123.683
  0
LINE
  8
0
 10
459.85
 20
123.683
 11
462.85
 21
123.683
  0
LINE
  8
0
 10
462.85
 20
123.683
 11
462.85
 21
135.237
  0
LINE
  8
0
 10
462.85
 20
135.237
 11
459.85
 21
135.237
  0
LINE
  8
0
 10
459.85
 20
135.237
 11
459.85
 21
147.09
  0
LINE
  8
0
 10
459.85
 20
147.09
 11
3.14999
 21
147.09
  0
LINE
  8
0
 10
3.14999
 20
147.09
 11
3.14999
 21
135.237
  0
LINE
  8
0
 10
3.14999
 20
135.237
 11
0.149994
 21
135.237
  0
LINE
  8
0
 10
0.149994
 20
135.237
 11
0.149994
 21
123.683
  0
LINE
  8
0
 10
0.149994
 20
123.683
 11
3.14999
 21
123.683
  0
LINE
  8
0
 10
3.14999
 20
123.683
 11
3.14999
 21
111.53
  0
LINE
  8
0
 10
3.14999
 20
111.53
 11
0.149994
 21
111.53
  0
LINE
  8
0
 10
0.149994
 20
111.53
 11
0.149994
 21
99.9767
  0
LINE
  8
0
 10
0.149994
 20
99.9767
 11
3.14999
 21
99.9767
  0
LINE
  8
0
 10
3.14999
 20
99.9767
 11
3.14999
 21
87.8233
  0
LINE
  8
0
 10
3.14999
 20
87.8233
 11
0.149994
 21
87.8233
  0
LINE
  8
0
 10
0.149994
 20
87.8233
 11
0.149994
 21
76.27
  0
LINE
  8
0
 10
0.149994
 20
76.27
 11
229.85
 21
76.27
  0
LINE
  8
0
 10
229.85
 20
76.27
 11
229.85
 21
111.83
  0
LINE
  8
0
 10
229.85
 20
12.0033
 11
233.15
 21
12.0033
  0
LINE
  8
0
 10
233.15
 20
12.0033
 11
233.15
 21
0.149994
  0
LINE
  8
0
 10
233.15
 20
0.149994
 11
462.85
 21
0.149994
  0
LINE
  8
0
 10
462.85
 20
0.149994
 11
462.85
 21
11.7033
  0
LINE
  8
0
 10
462.85
 20
11.7033
 11
459.85
 21
11.7033
  0
LINE
  8
0
 10
459.85
 20
11.7033
 11
459.85
 21
23.8567
  0
LINE
  8
0
 10
459.85
 20
23.8567
 11
462.85
 21
23.8567
  0
LINE
  8
0
 10
462.85
 20
23.8567
 11
462.85
 21
35.41
  0
LINE
  8
0
 10
462.85
 20
35.41
 11
459.85
 21
35.41
  0
LINE
  8
0
 10
459.85
 20
35.41
 11
459.85
 21
47.5633
  0
LINE
  8
0
 10
459.85
 20
47.5633
 11
462.85
 21
47.5633
  0
LINE
  8
0
 10
462.85
 20
47.5633
 11
462.85
 21
59.1167
  0
LINE
  8
0
 10
462.85
 20
59.1167
 11
459.85
 21
59.1167
  0
LINE
  8
0
 10
459.85
 20
59.1167
 11
459.85
 21
70.97
  0
LINE
  8
0
 10
459.85
 20
70.97
 11
3.14999
 21
70.97
  0
LINE
  8
0
 10
3.14999
 20
70.97
 11
3.14999
 21
59.1167
  0
LINE
  8
0
 10
3.14999
 20
59.1167
 11
0.149994
 21
59.1167
  0
LINE
  8
0
 10
0.149994
 20
59.1167
 11
0.149994
 21
47.5633
  0
LINE
  8
0
 10
0.149994
 20
47.5633
 11
3.14999
 21
47.5633
  0
LINE
  8
0
 10
3.14999
 20
47.5633
 11
3.14999
 21
35.41
  0
LINE
  8
0
 10
3.14999
 20
35.41
 11
0.149994
 21
35.41
  0
LINE
  8
0
 10
0.149994
 20
35.41
 11
0.149994
 21
23.8567
  0
LINE
  8
0
 10
0.149994
 20
23.8567
 11
3.14999
 21
23.8567
  0
LINE
  8
0
 10
3.14999
 20
23.8567
 11
3.14999
 21
11.7033
  0
LINE
  8
0
 10
3.14999
 20
11.7033
 11
0.149994
 21
11.7033
  0
LINE
  8
0
 10
0.149994
 20
11.7033
 11
0.149994
 21
0.149994
  0
LINE
  8
0
 10
0.149994
 20
0.149994
 11
229.85
 21
0.149994
  0
LINE
  8
0
 10
229.85
 20
0.149994
 11
229.85
 21
12.0033
  0
LINE
  8
0
 10
229.85
 20
47.2633
 11
229.85
 21
59.4167
  0
LINE
  8
0
 10
229.85
 20
59.4167
 11
233.15
 21
59.4167
  0
LINE
  8
0
 10
233.15
 20
59.4167
 11
233.15
 21
47.2633
  0
LINE
  8
0
 10
233.15
 20
47.2633
 11
229.85
 21
47.2633
  0
LINE
  8
0
 10
229.85
 20
23.5567
 11
229.85
 21
35.71
  0
LINE
  8
0
 10
229.85
 20
35.71
 11
233.15
 21
35.71
  0
LINE
  8
0
 10
233.15
 20
35.71
 11
233.15
 21
23.5567
  0
LINE
  8
0
 10
233.15
 20
23.5567
 11
229.85
 21
23.5567
  0
ENDSEC
  0
SECTION
  2
OBJECTS
  0
DICTIONARY
  0
ENDSEC
  0
EOF
