  0
SECTION
  2
BLOCKS
  0
ENDSEC
  0
SECTION
  2
ENTITIES
  0
LINE
  8
0
 10
332.767
 20
337.7
 11
338.567
 21
337.7
  0
LINE
  8
0
 10
338.567
 20
337.7
 11
338.567
 21
325
  0
LINE
  8
0
 10
338.567
 20
325
 11
415.433
 21
325
  0
LINE
  8
0
 10
415.433
 20
325
 11
415.433
 21
337.7
  0
LINE
  8
0
 10
415.433
 20
337.7
 11
421.233
 21
337.7
  0
LINE
  8
0
 10
421.233
 20
337.7
 11
421.233
 21
325
  0
LINE
  8
0
 10
421.233
 20
325
 11
500.8
 21
325
  0
LINE
  8
0
 10
500.8
 20
325
 11
500.8
 21
337.3
  0
LINE
  8
0
 10
500.8
 20
337.3
 11
495.4
 21
337.3
  0
LINE
  8
0
 10
495.4
 20
337.3
 11
495.4
 21
350.4
  0
LINE
  8
0
 10
495.4
 20
350.4
 11
500.8
 21
350.4
  0
LINE
  8
0
 10
500.8
 20
350.4
 11
500.8
 21
362.7
  0
LINE
  8
0
 10
500.8
 20
362.7
 11
495.4
 21
362.7
  0
LINE
  8
0
 10
495.4
 20
362.7
 11
495.4
 21
375.8
  0
LINE
  8
0
 10
495.4
 20
375.8
 11
500.8
 21
375.8
  0
LINE
  8
0
 10
500.8
 20
375.8
 11
500.8
 21
388.1
  0
LINE
  8
0
 10
500.8
 20
388.1
 11
495.4
 21
388.1
  0
LINE
  8
0
 10
495.4
 20
388.1
 11
495.4
 21
400.8
  0
LINE
  8
0
 10
495.4
 20
400.8
 11
253.2
 21
400.8
  0
LINE
  8
0
 10
253.2
 20
400.8
 11
253.2
 21
388.5
  0
LINE
  8
0
 10
253.2
 20
388.5
 11
258.6
 21
388.5
  0
LINE
  8
0
 10
258.6
 20
388.5
 11
258.6
 21
375.4
  0
LINE
  8
0
 10
258.6
 20
375.4
 11
253.2
 21
375.4
  0
LINE
  8
0
 10
253.2
 20
375.4
 11
253.2
 21
363.1
  0
LINE
  8
0
 10
253.2
 20
363.1
 11
258.6
 21
363.1
  0
LINE
  8
0
 10
258.6
 20
363.1
 11
258.6
 21
350
  0
LINE
  8
0
 10
258.6
 20
350
 11
253.2
 21
350
  0
LINE
  8
0
 10
253.2
 20
350
 11
253.2
 21
337.7
  0
LINE
  8
0
 10
253.2
 20
337.7
 11
258.6
 21
337.7
  0
LINE
  8
0
 10
258.6
 20
337.7
 11
258.6
 21
325
  0
LINE
  8
0
 10
258.6
 20
325
 11
332.767
 21
325
  0
LINE
  8
0
 10
332.767
 20
325
 11
332.767
 21
337.7
  0
LINE
  8
0
 10
415.433
 20
375.4
 11
415.433
 21
388.5
  0
LINE
  8
0
 10
415.433
 20
388.5
 11
421.233
 21
388.5
  0
LINE
  8
0
 10
421.233
 20
388.5
 11
421.233
 21
375.4
  0
LINE
  8
0
 10
421.233
 20
375.4
 11
415.433
 21
375.4
  0
LINE
  8
0
 10
332.767
 20
375.4
 11
332.767
 21
388.5
  0
LINE
  8
0
 10
332.767
 20
388.5
 11
338.567
 21
388.5
  0
LINE
  8
0
 10
338.567
 20
388.5
 11
338.567
 21
375.4
  0
LINE
  8
0
 10
338.567
 20
375.4
 11
332.767
 21
375.4
  0
LINE
  8
0
 10
415.433
 20
350
 11
415.433
 21
363.1
  0
LINE
  8
0
 10
415.433
 20
363.1
 11
421.233
 21
363.1
  0
LINE
  8
0
 10
421.233
 20
363.1
 11
421.233
 21
350
  0
LINE
  8
0
 10
421.233
 20
350
 11
415.433
 21
350
  0
LINE
  8
0
 10
332.767
 20
350
 11
332.767
 21
363.1
  0
LINE
  8
0
 10
332.767
 20
363.1
 11
338.567
 21
363.1
  0
LINE
  8
0
 10
338.567
 20
363.1
 11
338.567
 21
350
  0
LINE
  8
0
 10
338.567
 20
350
 11
332.767
 21
350
  0
LINE
  8
0
 10
79.7667
 20
337.7
 11
85.5667
 21
337.7
  0
LINE
  8
0
 10
85.5667
 20
337.7
 11
85.5667
 21
325
  0
LINE
  8
0
 10
85.5667
 20
325
 11
162.433
 21
325
  0
LINE
  8
0
 10
162.433
 20
325
 11
162.433
 21
337.7
  0
LINE
  8
0
 10
162.433
 20
337.7
 11
168.233
 21
337.7
  0
LINE
  8
0
 10
168.233
 20
337.7
 11
168.233
 21
325
  0
LINE
  8
0
 10
168.233
 20
325
 11
247.8
 21
325
  0
LINE
  8
0
 10
247.8
 20
325
 11
247.8
 21
337.3
  0
LINE
  8
0
 10
247.8
 20
337.3
 11
242.4
 21
337.3
  0
LINE
  8
0
 10
242.4
 20
337.3
 11
242.4
 21
350.4
  0
LINE
  8
0
 10
242.4
 20
350.4
 11
247.8
 21
350.4
  0
LINE
  8
0
 10
247.8
 20
350.4
 11
247.8
 21
362.7
  0
LINE
  8
0
 10
247.8
 20
362.7
 11
242.4
 21
362.7
  0
LINE
  8
0
 10
242.4
 20
362.7
 11
242.4
 21
375.8
  0
LINE
  8
0
 10
242.4
 20
375.8
 11
247.8
 21
375.8
  0
LINE
  8
0
 10
247.8
 20
375.8
 11
247.8
 21
388.1
  0
LINE
  8
0
 10
247.8
 20
388.1
 11
242.4
 21
388.1
  0
LINE
  8
0
 10
242.4
 20
388.1
 11
242.4
 21
400.8
  0
LINE
  8
0
 10
242.4
 20
400.8
 11
0.199997
 21
400.8
  0
LINE
  8
0
 10
0.199997
 20
400.8
 11
0.199997
 21
388.5
  0
LINE
  8
0
 10
0.199997
 20
388.5
 11
5.59999
 21
388.5
  0
LINE
  8
0
 10
5.59999
 20
388.5
 11
5.59999
 21
375.4
  0
LINE
  8
0
 10
5.59999
 20
375.4
 11
0.199997
 21
375.4
  0
LINE
  8
0
 10
0.199997
 20
375.4
 11
0.199997
 21
363.1
  0
LINE
  8
0
 10
0.199997
 20
363.1
 11
5.59999
 21
363.1
  0
LINE
  8
0
 10
5.59999
 20
363.1
 11
5.59999
 21
350
  0
LINE
  8
0
 10
5.59999
 20
350
 11
0.199997
 21
350
  0
LINE
  8
0
 10
0.199997
 20
350
 11
0.199997
 21
337.7
  0
LINE
  8
0
 10
0.199997
 20
337.7
 11
5.59999
 21
337.7
  0
LINE
  8
0
 10
5.59999
 20
337.7
 11
5.59999
 21
325
  0
LINE
  8
0
 10
5.59999
 20
325
 11
79.7667
 21
325
  0
LINE
  8
0
 10
79.7667
 20
325
 11
79.7667
 21
337.7
  0
LINE
  8
0
 10
79.7667
 20
375.4
 11
79.7667
 21
388.5
  0
LINE
  8
0
 10
79.7667
 20
388.5
 11
85.5667
 21
388.5
  0
LINE
  8
0
 10
85.5667
 20
388.5
 11
85.5667
 21
375.4
  0
LINE
  8
0
 10
85.5667
 20
375.4
 11
79.7667
 21
375.4
  0
LINE
  8
0
 10
162.433
 20
375.4
 11
162.433
 21
388.5
  0
LINE
  8
0
 10
162.433
 20
388.5
 11
168.233
 21
388.5
  0
LINE
  8
0
 10
168.233
 20
388.5
 11
168.233
 21
375.4
  0
LINE
  8
0
 10
168.233
 20
375.4
 11
162.433
 21
375.4
  0
LINE
  8
0
 10
79.7667
 20
350
 11
79.7667
 21
363.1
  0
LINE
  8
0
 10
79.7667
 20
363.1
 11
85.5667
 21
363.1
  0
LINE
  8
0
 10
85.5667
 20
363.1
 11
85.5667
 21
350
  0
LINE
  8
0
 10
85.5667
 20
350
 11
79.7667
 21
350
  0
LINE
  8
0
 10
162.433
 20
350
 11
162.433
 21
363.1
  0
LINE
  8
0
 10
162.433
 20
363.1
 11
168.233
 21
363.1
  0
LINE
  8
0
 10
168.233
 20
363.1
 11
168.233
 21
350
  0
LINE
  8
0
 10
168.233
 20
350
 11
162.433
 21
350
  0
LINE
  8
0
 10
488.8
 20
256.1
 11
483.4
 21
256.1
  0
LINE
  8
0
 10
483.4
 20
256.1
 11
483.4
 21
269.2
  0
LINE
  8
0
 10
483.4
 20
269.2
 11
488.8
 21
269.2
  0
LINE
  8
0
 10
488.8
 20
269.2
 11
488.8
 21
281.5
  0
LINE
  8
0
 10
488.8
 20
281.5
 11
483.4
 21
281.5
  0
LINE
  8
0
 10
483.4
 20
281.5
 11
483.4
 21
294.6
  0
LINE
  8
0
 10
483.4
 20
294.6
 11
488.8
 21
294.6
  0
LINE
  8
0
 10
488.8
 20
294.6
 11
488.8
 21
306.9
  0
LINE
  8
0
 10
488.8
 20
306.9
 11
483.4
 21
306.9
  0
LINE
  8
0
 10
483.4
 20
306.9
 11
483.4
 21
319.6
  0
LINE
  8
0
 10
483.4
 20
319.6
 11
0.199997
 21
319.6
  0
LINE
  8
0
 10
0.199997
 20
319.6
 11
0.199997
 21
307.3
  0
LINE
  8
0
 10
0.199997
 20
307.3
 11
5.59999
 21
307.3
  0
LINE
  8
0
 10
5.59999
 20
307.3
 11
5.59999
 21
294.2
  0
LINE
  8
0
 10
5.59999
 20
294.2
 11
0.199997
 21
294.2
  0
LINE
  8
0
 10
0.199997
 20
294.2
 11
0.199997
 21
281.9
  0
LINE
  8
0
 10
0.199997
 20
281.9
 11
5.59999
 21
281.9
  0
LINE
  8
0
 10
5.59999
 20
281.9
 11
5.59999
 21
268.8
  0
LINE
  8
0
 10
5.59999
 20
268.8
 11
0.199997
 21
268.8
  0
LINE
  8
0
 10
0.199997
 20
268.8
 11
0.199997
 21
256.5
  0
LINE
  8
0
 10
0.199997
 20
256.5
 11
5.59999
 21
256.5
  0
LINE
  8
0
 10
5.59999
 20
256.5
 11
5.59999
 21
243.8
  0
LINE
  8
0
 10
5.59999
 20
243.8
 11
488.8
 21
243.8
  0
LINE
  8
0
 10
488.8
 20
243.8
 11
488.8
 21
256.1
  0
LINE
  8
0
 10
241.6
 20
175.3
 11
247.4
 21
175.3
  0
LINE
  8
0
 10
247.4
 20
175.3
 11
247.4
 21
162.6
  0
LINE
  8
0
 10
247.4
 20
162.6
 11
488.8
 21
162.6
  0
LINE
  8
0
 10
488.8
 20
162.6
 11
488.8
 21
174.9
  0
LINE
  8
0
 10
488.8
 20
174.9
 11
483.4
 21
174.9
  0
LINE
  8
0
 10
483.4
 20
174.9
 11
483.4
 21
188
  0
LINE
  8
0
 10
483.4
 20
188
 11
488.8
 21
188
  0
LINE
  8
0
 10
488.8
 20
188
 11
488.8
 21
200.3
  0
LINE
  8
0
 10
488.8
 20
200.3
 11
483.4
 21
200.3
  0
LINE
  8
0
 10
483.4
 20
200.3
 11
483.4
 21
213.4
  0
LINE
  8
0
 10
483.4
 20
213.4
 11
488.8
 21
213.4
  0
LINE
  8
0
 10
488.8
 20
213.4
 11
488.8
 21
225.7
  0
LINE
  8
0
 10
488.8
 20
225.7
 11
483.4
 21
225.7
  0
LINE
  8
0
 10
483.4
 20
225.7
 11
483.4
 21
238.4
  0
LINE
  8
0
 10
483.4
 20
238.4
 11
0.199997
 21
238.4
  0
LINE
  8
0
 10
0.199997
 20
238.4
 11
0.199997
 21
226.1
  0
LINE
  8
0
 10
0.199997
 20
226.1
 11
5.59999
 21
226.1
  0
LINE
  8
0
 10
5.59999
 20
226.1
 11
5.59999
 21
213
  0
LINE
  8
0
 10
5.59999
 20
213
 11
0.199997
 21
213
  0
LINE
  8
0
 10
0.199997
 20
213
 11
0.199997
 21
200.7
  0
LINE
  8
0
 10
0.199997
 20
200.7
 11
5.59999
 21
200.7
  0
LINE
  8
0
 10
5.59999
 20
200.7
 11
5.59999
 21
187.6
  0
LINE
  8
0
 10
5.59999
 20
187.6
 11
0.199997
 21
187.6
  0
LINE
  8
0
 10
0.199997
 20
187.6
 11
0.199997
 21
175.3
  0
LINE
  8
0
 10
0.199997
 20
175.3
 11
5.59999
 21
175.3
  0
LINE
  8
0
 10
5.59999
 20
175.3
 11
5.59999
 21
162.6
  0
LINE
  8
0
 10
5.59999
 20
162.6
 11
241.6
 21
162.6
  0
LINE
  8
0
 10
241.6
 20
162.6
 11
241.6
 21
175.3
  0
LINE
  8
0
 10
241.6
 20
213
 11
241.6
 21
226.1
  0
LINE
  8
0
 10
241.6
 20
226.1
 11
247.4
 21
226.1
  0
LINE
  8
0
 10
247.4
 20
226.1
 11
247.4
 21
213
  0
LINE
  8
0
 10
247.4
 20
213
 11
241.6
 21
213
  0
LINE
  8
0
 10
241.6
 20
187.6
 11
241.6
 21
200.7
  0
LINE
  8
0
 10
241.6
 20
200.7
 11
247.4
 21
200.7
  0
LINE
  8
0
 10
247.4
 20
200.7
 11
247.4
 21
187.6
  0
LINE
  8
0
 10
247.4
 20
187.6
 11
241.6
 21
187.6
  0
LINE
  8
0
 10
519.2
 20
5.59999
 11
532.3
 21
5.59999
  0
LINE
  8
0
 10
532.3
 20
5.59999
 11
532.3
 21
0.199997
  0
LINE
  8
0
 10
532.3
 20
0.199997
 11
544.6
 21
0.199997
  0
LINE
  8
0
 10
544.6
 20
0.199997
 11
544.6
 21
5.59999
  0
LINE
  8
0
 10
544.6
 20
5.59999
 11
557.7
 21
5.59999
  0
LINE
  8
0
 10
557.7
 20
5.59999
 11
557.7
 21
0.199997
  0
LINE
  8
0
 10
557.7
 20
0.199997
 11
570
 21
0.199997
  0
LINE
  8
0
 10
570
 20
0.199997
 11
570
 21
167.833
  0
LINE
  8
0
 10
570
 20
167.833
 11
557.7
 21
167.833
  0
LINE
  8
0
 10
557.7
 20
167.833
 11
557.7
 21
162.433
  0
LINE
  8
0
 10
557.7
 20
162.433
 11
544.6
 21
162.433
  0
LINE
  8
0
 10
544.6
 20
162.433
 11
544.6
 21
167.833
  0
LINE
  8
0
 10
544.6
 20
167.833
 11
532.3
 21
167.833
  0
LINE
  8
0
 10
532.3
 20
167.833
 11
532.3
 21
162.433
  0
LINE
  8
0
 10
532.3
 20
162.433
 11
519.2
 21
162.433
  0
LINE
  8
0
 10
519.2
 20
162.433
 11
519.2
 21
167.833
  0
LINE
  8
0
 10
519.2
 20
167.833
 11
506.9
 21
167.833
  0
LINE
  8
0
 10
506.9
 20
167.833
 11
506.9
 21
162.433
  0
LINE
  8
0
 10
506.9
 20
162.433
 11
494.2
 21
162.433
  0
LINE
  8
0
 10
494.2
 20
162.433
 11
493.8
 21
85.5667
  0
LINE
  8
0
 10
493.8
 20
85.5667
 11
531.9
 21
85.5667
  0
LINE
  8
0
 10
531.9
 20
85.5667
 11
531.9
 21
79.7667
  0
LINE
  8
0
 10
531.9
 20
79.7667
 11
493.8
 21
79.7667
  0
LINE
  8
0
 10
493.8
 20
79.7667
 11
494.2
 21
5.59999
  0
LINE
  8
0
 10
494.2
 20
5.59999
 11
506.9
 21
5.59999
  0
LINE
  8
0
 10
506.9
 20
5.59999
 11
506.9
 21
0.199997
  0
LINE
  8
0
 10
506.9
 20
0.199997
 11
519.2
 21
0.199997
  0
LINE
  8
0
 10
519.2
 20
0.199997
 11
519.2
 21
5.59999
  0
LINE
  8
0
 10
241.6
 20
119.5
 11
247.4
 21
119.5
  0
LINE
  8
0
 10
247.4
 20
119.5
 11
247.4
 21
81.4
  0
LINE
  8
0
 10
247.4
 20
81.4
 11
488.8
 21
81.4
  0
LINE
  8
0
 10
488.8
 20
81.4
 11
488.8
 21
93.7
  0
LINE
  8
0
 10
488.8
 20
93.7
 11
483.4
 21
93.7
  0
LINE
  8
0
 10
483.4
 20
93.7
 11
483.4
 21
106.8
  0
LINE
  8
0
 10
483.4
 20
106.8
 11
488.8
 21
106.8
  0
LINE
  8
0
 10
488.8
 20
106.8
 11
488.8
 21
119.1
  0
LINE
  8
0
 10
488.8
 20
119.1
 11
483.4
 21
119.1
  0
LINE
  8
0
 10
483.4
 20
119.1
 11
483.4
 21
132.2
  0
LINE
  8
0
 10
483.4
 20
132.2
 11
488.8
 21
132.2
  0
LINE
  8
0
 10
488.8
 20
132.2
 11
488.8
 21
144.5
  0
LINE
  8
0
 10
488.8
 20
144.5
 11
483.4
 21
144.5
  0
LINE
  8
0
 10
483.4
 20
144.5
 11
483.4
 21
157.2
  0
LINE
  8
0
 10
483.4
 20
157.2
 11
5.59999
 21
157.2
  0
LINE
  8
0
 10
5.59999
 20
157.2
 11
5.59999
 21
144.5
  0
LINE
  8
0
 10
5.59999
 20
144.5
 11
0.199997
 21
144.5
  0
LINE
  8
0
 10
0.199997
 20
144.5
 11
0.199997
 21
132.2
  0
LINE
  8
0
 10
0.199997
 20
132.2
 11
5.59999
 21
132.2
  0
LINE
  8
0
 10
5.59999
 20
132.2
 11
5.59999
 21
119.1
  0
LINE
  8
0
 10
5.59999
 20
119.1
 11
0.199997
 21
119.1
  0
LINE
  8
0
 10
0.199997
 20
119.1
 11
0.199997
 21
106.8
  0
LINE
  8
0
 10
0.199997
 20
106.8
 11
5.59999
 21
106.8
  0
LINE
  8
0
 10
5.59999
 20
106.8
 11
5.59999
 21
93.7
  0
LINE
  8
0
 10
5.59999
 20
93.7
 11
0.199997
 21
93.7
  0
LINE
  8
0
 10
0.199997
 20
93.7
 11
0.199997
 21
81.4
  0
LINE
  8
0
 10
0.199997
 20
81.4
 11
241.6
 21
81.4
  0
LINE
  8
0
 10
241.6
 20
81.4
 11
241.6
 21
119.5
  0
LINE
  8
0
 10
241.6
 20
12.9
 11
247.4
 21
12.9
  0
LINE
  8
0
 10
247.4
 20
12.9
 11
247.4
 21
0.199997
  0
LINE
  8
0
 10
247.4
 20
0.199997
 11
488.8
 21
0.199997
  0
LINE
  8
0
 10
488.8
 20
0.199997
 11
488.8
 21
12.5
  0
LINE
  8
0
 10
488.8
 20
12.5
 11
483.4
 21
12.5
  0
LINE
  8
0
 10
483.4
 20
12.5
 11
483.4
 21
25.6
  0
LINE
  8
0
 10
483.4
 20
25.6
 11
488.8
 21
25.6
  0
LINE
  8
0
 10
488.8
 20
25.6
 11
488.8
 21
37.9
  0
LINE
  8
0
 10
488.8
 20
37.9
 11
483.4
 21
37.9
  0
LINE
  8
0
 10
483.4
 20
37.9
 11
483.4
 21
51
  0
LINE
  8
0
 10
483.4
 20
51
 11
488.8
 21
51
  0
LINE
  8
0
 10
488.8
 20
51
 11
488.8
 21
63.3
  0
LINE
  8
0
 10
488.8
 20
63.3
 11
483.4
 21
63.3
  0
LINE
  8
0
 10
483.4
 20
63.3
 11
483.4
 21
76
  0
LINE
  8
0
 10
483.4
 20
76
 11
5.59999
 21
76
  0
LINE
  8
0
 10
5.59999
 20
76
 11
5.59999
 21
63.3
  0
LINE
  8
0
 10
5.59999
 20
63.3
 11
0.199997
 21
63.3
  0
LINE
  8
0
 10
0.199997
 20
63.3
 11
0.199997
 21
51
  0
LINE
  8
0
 10
0.199997
 20
51
 11
5.59999
 21
51
  0
LINE
  8
0
 10
5.59999
 20
51
 11
5.59999
 21
37.9
  0
LINE
  8
0
 10
5.59999
 20
37.9
 11
0.199997
 21
37.9
  0
LINE
  8
0
 10
0.199997
 20
37.9
 11
0.199997
 21
25.6
  0
LINE
  8
0
 10
0.199997
 20
25.6
 11
5.59999
 21
25.6
  0
LINE
  8
0
 10
5.59999
 20
25.6
 11
5.59999
 21
12.5
  0
LINE
  8
0
 10
5.59999
 20
12.5
 11
0.199997
 21
12.5
  0
LINE
  8
0
 10
0.199997
 20
12.5
 11
0.199997
 21
0.199997
  0
LINE
  8
0
 10
0.199997
 20
0.199997
 11
241.6
 21
0.199997
  0
LINE
  8
0
 10
241.6
 20
0.199997
 11
241.6
 21
12.9
  0
LINE
  8
0
 10
241.6
 20
50.6
 11
241.6
 21
63.7
  0
LINE
  8
0
 10
241.6
 20
63.7
 11
247.4
 21
63.7
  0
LINE
  8
0
 10
247.4
 20
63.7
 11
247.4
 21
50.6
  0
LINE
  8
0
 10
247.4
 20
50.6
 11
241.6
 21
50.6
  0
LINE
  8
0
 10
241.6
 20
25.2
 11
241.6
 21
38.3
  0
LINE
  8
0
 10
241.6
 20
38.3
 11
247.4
 21
38.3
  0
LINE
  8
0
 10
247.4
 20
38.3
 11
247.4
 21
25.2
  0
LINE
  8
0
 10
247.4
 20
25.2
 11
241.6
 21
25.2
  0
ENDSEC
  0
SECTION
  2
OBJECTS
  0
DICTIONARY
  0
ENDSEC
  0
EOF
