  0
SECTION
  2
BLOCKS
  0
ENDSEC
  0
SECTION
  2
ENTITIES
  0
LINE
  8
0
 10
331.517
 20
337.65
 11
334.817
 21
337.65
  0
LINE
  8
0
 10
334.817
 20
337.65
 11
334.817
 21
324.95
  0
LINE
  8
0
 10
334.817
 20
324.95
 11
414.183
 21
324.95
  0
LINE
  8
0
 10
414.183
 20
324.95
 11
414.183
 21
337.65
  0
LINE
  8
0
 10
414.183
 20
337.65
 11
417.483
 21
337.65
  0
LINE
  8
0
 10
417.483
 20
337.65
 11
417.483
 21
324.95
  0
LINE
  8
0
 10
417.483
 20
324.95
 11
498.35
 21
324.95
  0
LINE
  8
0
 10
498.35
 20
324.95
 11
498.35
 21
337.35
  0
LINE
  8
0
 10
498.35
 20
337.35
 11
495.35
 21
337.35
  0
LINE
  8
0
 10
495.35
 20
337.35
 11
495.35
 21
350.35
  0
LINE
  8
0
 10
495.35
 20
350.35
 11
498.35
 21
350.35
  0
LINE
  8
0
 10
498.35
 20
350.35
 11
498.35
 21
362.75
  0
LINE
  8
0
 10
498.35
 20
362.75
 11
495.35
 21
362.75
  0
LINE
  8
0
 10
495.35
 20
362.75
 11
495.35
 21
375.75
  0
LINE
  8
0
 10
495.35
 20
375.75
 11
498.35
 21
375.75
  0
LINE
  8
0
 10
498.35
 20
375.75
 11
498.35
 21
388.15
  0
LINE
  8
0
 10
498.35
 20
388.15
 11
495.35
 21
388.15
  0
LINE
  8
0
 10
495.35
 20
388.15
 11
495.35
 21
400.85
  0
LINE
  8
0
 10
495.35
 20
400.85
 11
250.65
 21
400.85
  0
LINE
  8
0
 10
250.65
 20
400.85
 11
250.65
 21
388.45
  0
LINE
  8
0
 10
250.65
 20
388.45
 11
253.65
 21
388.45
  0
LINE
  8
0
 10
253.65
 20
388.45
 11
253.65
 21
375.45
  0
LINE
  8
0
 10
253.65
 20
375.45
 11
250.65
 21
375.45
  0
LINE
  8
0
 10
250.65
 20
375.45
 11
250.65
 21
363.05
  0
LINE
  8
0
 10
250.65
 20
363.05
 11
253.65
 21
363.05
  0
LINE
  8
0
 10
253.65
 20
363.05
 11
253.65
 21
350.05
  0
LINE
  8
0
 10
253.65
 20
350.05
 11
250.65
 21
350.05
  0
LINE
  8
0
 10
250.65
 20
350.05
 11
250.65
 21
337.65
  0
LINE
  8
0
 10
250.65
 20
337.65
 11
253.65
 21
337.65
  0
LINE
  8
0
 10
253.65
 20
337.65
 11
253.65
 21
324.95
  0
LINE
  8
0
 10
253.65
 20
324.95
 11
331.517
 21
324.95
  0
LINE
  8
0
 10
331.517
 20
324.95
 11
331.517
 21
337.65
  0
LINE
  8
0
 10
414.183
 20
375.45
 11
414.183
 21
388.45
  0
LINE
  8
0
 10
414.183
 20
388.45
 11
417.483
 21
388.45
  0
LINE
  8
0
 10
417.483
 20
388.45
 11
417.483
 21
375.45
  0
LINE
  8
0
 10
417.483
 20
375.45
 11
414.183
 21
375.45
  0
LINE
  8
0
 10
331.517
 20
375.45
 11
331.517
 21
388.45
  0
LINE
  8
0
 10
331.517
 20
388.45
 11
334.817
 21
388.45
  0
LINE
  8
0
 10
334.817
 20
388.45
 11
334.817
 21
375.45
  0
LINE
  8
0
 10
334.817
 20
375.45
 11
331.517
 21
375.45
  0
LINE
  8
0
 10
414.183
 20
350.05
 11
414.183
 21
363.05
  0
LINE
  8
0
 10
414.183
 20
363.05
 11
417.483
 21
363.05
  0
LINE
  8
0
 10
417.483
 20
363.05
 11
417.483
 21
350.05
  0
LINE
  8
0
 10
417.483
 20
350.05
 11
414.183
 21
350.05
  0
LINE
  8
0
 10
331.517
 20
350.05
 11
331.517
 21
363.05
  0
LINE
  8
0
 10
331.517
 20
363.05
 11
334.817
 21
363.05
  0
LINE
  8
0
 10
334.817
 20
363.05
 11
334.817
 21
350.05
  0
LINE
  8
0
 10
334.817
 20
350.05
 11
331.517
 21
350.05
  0
LINE
  8
0
 10
81.0167
 20
337.65
 11
84.3167
 21
337.65
  0
LINE
  8
0
 10
84.3167
 20
337.65
 11
84.3167
 21
324.95
  0
LINE
  8
0
 10
84.3167
 20
324.95
 11
163.683
 21
324.95
  0
LINE
  8
0
 10
163.683
 20
324.95
 11
163.683
 21
337.65
  0
LINE
  8
0
 10
163.683
 20
337.65
 11
166.983
 21
337.65
  0
LINE
  8
0
 10
166.983
 20
337.65
 11
166.983
 21
324.95
  0
LINE
  8
0
 10
166.983
 20
324.95
 11
247.85
 21
324.95
  0
LINE
  8
0
 10
247.85
 20
324.95
 11
247.85
 21
337.35
  0
LINE
  8
0
 10
247.85
 20
337.35
 11
244.85
 21
337.35
  0
LINE
  8
0
 10
244.85
 20
337.35
 11
244.85
 21
350.35
  0
LINE
  8
0
 10
244.85
 20
350.35
 11
247.85
 21
350.35
  0
LINE
  8
0
 10
247.85
 20
350.35
 11
247.85
 21
362.75
  0
LINE
  8
0
 10
247.85
 20
362.75
 11
244.85
 21
362.75
  0
LINE
  8
0
 10
244.85
 20
362.75
 11
244.85
 21
375.75
  0
LINE
  8
0
 10
244.85
 20
375.75
 11
247.85
 21
375.75
  0
LINE
  8
0
 10
247.85
 20
375.75
 11
247.85
 21
388.15
  0
LINE
  8
0
 10
247.85
 20
388.15
 11
244.85
 21
388.15
  0
LINE
  8
0
 10
244.85
 20
388.15
 11
244.85
 21
400.85
  0
LINE
  8
0
 10
244.85
 20
400.85
 11
0.149994
 21
400.85
  0
LINE
  8
0
 10
0.149994
 20
400.85
 11
0.149994
 21
388.45
  0
LINE
  8
0
 10
0.149994
 20
388.45
 11
3.14999
 21
388.45
  0
LINE
  8
0
 10
3.14999
 20
388.45
 11
3.14999
 21
375.45
  0
LINE
  8
0
 10
3.14999
 20
375.45
 11
0.149994
 21
375.45
  0
LINE
  8
0
 10
0.149994
 20
375.45
 11
0.149994
 21
363.05
  0
LINE
  8
0
 10
0.149994
 20
363.05
 11
3.14999
 21
363.05
  0
LINE
  8
0
 10
3.14999
 20
363.05
 11
3.14999
 21
350.05
  0
LINE
  8
0
 10
3.14999
 20
350.05
 11
0.149994
 21
350.05
  0
LINE
  8
0
 10
0.149994
 20
350.05
 11
0.149994
 21
337.65
  0
LINE
  8
0
 10
0.149994
 20
337.65
 11
3.14999
 21
337.65
  0
LINE
  8
0
 10
3.14999
 20
337.65
 11
3.14999
 21
324.95
  0
LINE
  8
0
 10
3.14999
 20
324.95
 11
81.0167
 21
324.95
  0
LINE
  8
0
 10
81.0167
 20
324.95
 11
81.0167
 21
337.65
  0
LINE
  8
0
 10
81.0167
 20
375.45
 11
81.0167
 21
388.45
  0
LINE
  8
0
 10
81.0167
 20
388.45
 11
84.3167
 21
388.45
  0
LINE
  8
0
 10
84.3167
 20
388.45
 11
84.3167
 21
375.45
  0
LINE
  8
0
 10
84.3167
 20
375.45
 11
81.0167
 21
375.45
  0
LINE
  8
0
 10
163.683
 20
375.45
 11
163.683
 21
388.45
  0
LINE
  8
0
 10
163.683
 20
388.45
 11
166.983
 21
388.45
  0
LINE
  8
0
 10
166.983
 20
388.45
 11
166.983
 21
375.45
  0
LINE
  8
0
 10
166.983
 20
375.45
 11
163.683
 21
375.45
  0
LINE
  8
0
 10
81.0167
 20
350.05
 11
81.0167
 21
363.05
  0
LINE
  8
0
 10
81.0167
 20
363.05
 11
84.3167
 21
363.05
  0
LINE
  8
0
 10
84.3167
 20
363.05
 11
84.3167
 21
350.05
  0
LINE
  8
0
 10
84.3167
 20
350.05
 11
81.0167
 21
350.05
  0
LINE
  8
0
 10
163.683
 20
350.05
 11
163.683
 21
363.05
  0
LINE
  8
0
 10
163.683
 20
363.05
 11
166.983
 21
363.05
  0
LINE
  8
0
 10
166.983
 20
363.05
 11
166.983
 21
350.05
  0
LINE
  8
0
 10
166.983
 20
350.05
 11
163.683
 21
350.05
  0
LINE
  8
0
 10
488.85
 20
256.15
 11
485.85
 21
256.15
  0
LINE
  8
0
 10
485.85
 20
256.15
 11
485.85
 21
269.15
  0
LINE
  8
0
 10
485.85
 20
269.15
 11
488.85
 21
269.15
  0
LINE
  8
0
 10
488.85
 20
269.15
 11
488.85
 21
281.55
  0
LINE
  8
0
 10
488.85
 20
281.55
 11
485.85
 21
281.55
  0
LINE
  8
0
 10
485.85
 20
281.55
 11
485.85
 21
294.55
  0
LINE
  8
0
 10
485.85
 20
294.55
 11
488.85
 21
294.55
  0
LINE
  8
0
 10
488.85
 20
294.55
 11
488.85
 21
306.95
  0
LINE
  8
0
 10
488.85
 20
306.95
 11
485.85
 21
306.95
  0
LINE
  8
0
 10
485.85
 20
306.95
 11
485.85
 21
319.65
  0
LINE
  8
0
 10
485.85
 20
319.65
 11
0.149994
 21
319.65
  0
LINE
  8
0
 10
0.149994
 20
319.65
 11
0.149994
 21
307.25
  0
LINE
  8
0
 10
0.149994
 20
307.25
 11
3.14999
 21
307.25
  0
LINE
  8
0
 10
3.14999
 20
307.25
 11
3.14999
 21
294.25
  0
LINE
  8
0
 10
3.14999
 20
294.25
 11
0.149994
 21
294.25
  0
LINE
  8
0
 10
0.149994
 20
294.25
 11
0.149994
 21
281.85
  0
LINE
  8
0
 10
0.149994
 20
281.85
 11
3.14999
 21
281.85
  0
LINE
  8
0
 10
3.14999
 20
281.85
 11
3.14999
 21
268.85
  0
LINE
  8
0
 10
3.14999
 20
268.85
 11
0.149994
 21
268.85
  0
LINE
  8
0
 10
0.149994
 20
268.85
 11
0.149994
 21
256.45
  0
LINE
  8
0
 10
0.149994
 20
256.45
 11
3.14999
 21
256.45
  0
LINE
  8
0
 10
3.14999
 20
256.45
 11
3.14999
 21
243.75
  0
LINE
  8
0
 10
3.14999
 20
243.75
 11
488.85
 21
243.75
  0
LINE
  8
0
 10
488.85
 20
243.75
 11
488.85
 21
256.15
  0
LINE
  8
0
 10
242.85
 20
175.25
 11
246.15
 21
175.25
  0
LINE
  8
0
 10
246.15
 20
175.25
 11
246.15
 21
162.55
  0
LINE
  8
0
 10
246.15
 20
162.55
 11
488.85
 21
162.55
  0
LINE
  8
0
 10
488.85
 20
162.55
 11
488.85
 21
174.95
  0
LINE
  8
0
 10
488.85
 20
174.95
 11
485.85
 21
174.95
  0
LINE
  8
0
 10
485.85
 20
174.95
 11
485.85
 21
187.95
  0
LINE
  8
0
 10
485.85
 20
187.95
 11
488.85
 21
187.95
  0
LINE
  8
0
 10
488.85
 20
187.95
 11
488.85
 21
200.35
  0
LINE
  8
0
 10
488.85
 20
200.35
 11
485.85
 21
200.35
  0
LINE
  8
0
 10
485.85
 20
200.35
 11
485.85
 21
213.35
  0
LINE
  8
0
 10
485.85
 20
213.35
 11
488.85
 21
213.35
  0
LINE
  8
0
 10
488.85
 20
213.35
 11
488.85
 21
225.75
  0
LINE
  8
0
 10
488.85
 20
225.75
 11
485.85
 21
225.75
  0
LINE
  8
0
 10
485.85
 20
225.75
 11
485.85
 21
238.45
  0
LINE
  8
0
 10
485.85
 20
238.45
 11
0.149994
 21
238.45
  0
LINE
  8
0
 10
0.149994
 20
238.45
 11
0.149994
 21
226.05
  0
LINE
  8
0
 10
0.149994
 20
226.05
 11
3.14999
 21
226.05
  0
LINE
  8
0
 10
3.14999
 20
226.05
 11
3.14999
 21
213.05
  0
LINE
  8
0
 10
3.14999
 20
213.05
 11
0.149994
 21
213.05
  0
LINE
  8
0
 10
0.149994
 20
213.05
 11
0.149994
 21
200.65
  0
LINE
  8
0
 10
0.149994
 20
200.65
 11
3.14999
 21
200.65
  0
LINE
  8
0
 10
3.14999
 20
200.65
 11
3.14999
 21
187.65
  0
LINE
  8
0
 10
3.14999
 20
187.65
 11
0.149994
 21
187.65
  0
LINE
  8
0
 10
0.149994
 20
187.65
 11
0.149994
 21
175.25
  0
LINE
  8
0
 10
0.149994
 20
175.25
 11
3.14999
 21
175.25
  0
LINE
  8
0
 10
3.14999
 20
175.25
 11
3.14999
 21
162.55
  0
LINE
  8
0
 10
3.14999
 20
162.55
 11
242.85
 21
162.55
  0
LINE
  8
0
 10
242.85
 20
162.55
 11
242.85
 21
175.25
  0
LINE
  8
0
 10
242.85
 20
213.05
 11
242.85
 21
226.05
  0
LINE
  8
0
 10
242.85
 20
226.05
 11
246.15
 21
226.05
  0
LINE
  8
0
 10
246.15
 20
226.05
 11
246.15
 21
213.05
  0
LINE
  8
0
 10
246.15
 20
213.05
 11
242.85
 21
213.05
  0
LINE
  8
0
 10
242.85
 20
187.65
 11
242.85
 21
200.65
  0
LINE
  8
0
 10
242.85
 20
200.65
 11
246.15
 21
200.65
  0
LINE
  8
0
 10
246.15
 20
200.65
 11
246.15
 21
187.65
  0
LINE
  8
0
 10
246.15
 20
187.65
 11
242.85
 21
187.65
  0
LINE
  8
0
 10
519.25
 20
3.14999
 11
532.25
 21
3.14999
  0
LINE
  8
0
 10
532.25
 20
3.14999
 11
532.25
 21
0.149994
  0
LINE
  8
0
 10
532.25
 20
0.149994
 11
544.65
 21
0.149994
  0
LINE
  8
0
 10
544.65
 20
0.149994
 11
544.65
 21
3.14999
  0
LINE
  8
0
 10
544.65
 20
3.14999
 11
557.65
 21
3.14999
  0
LINE
  8
0
 10
557.65
 20
3.14999
 11
557.65
 21
0.149994
  0
LINE
  8
0
 10
557.65
 20
0.149994
 11
570.05
 21
0.149994
  0
LINE
  8
0
 10
570.05
 20
0.149994
 11
570.05
 21
166.683
  0
LINE
  8
0
 10
570.05
 20
166.683
 11
557.65
 21
166.683
  0
LINE
  8
0
 10
557.65
 20
166.683
 11
557.65
 21
163.683
  0
LINE
  8
0
 10
557.65
 20
163.683
 11
544.65
 21
163.683
  0
LINE
  8
0
 10
544.65
 20
163.683
 11
544.65
 21
166.683
  0
LINE
  8
0
 10
544.65
 20
166.683
 11
532.25
 21
166.683
  0
LINE
  8
0
 10
532.25
 20
166.683
 11
532.25
 21
163.683
  0
LINE
  8
0
 10
532.25
 20
163.683
 11
519.25
 21
163.683
  0
LINE
  8
0
 10
519.25
 20
163.683
 11
519.25
 21
166.683
  0
LINE
  8
0
 10
519.25
 20
166.683
 11
506.85
 21
166.683
  0
LINE
  8
0
 10
506.85
 20
166.683
 11
506.85
 21
163.683
  0
LINE
  8
0
 10
506.85
 20
163.683
 11
494.15
 21
163.683
  0
LINE
  8
0
 10
494.15
 20
163.683
 11
493.85
 21
84.3167
  0
LINE
  8
0
 10
493.85
 20
84.3167
 11
531.95
 21
84.3167
  0
LINE
  8
0
 10
531.95
 20
84.3167
 11
531.95
 21
81.0167
  0
LINE
  8
0
 10
531.95
 20
81.0167
 11
493.85
 21
81.0167
  0
LINE
  8
0
 10
493.85
 20
81.0167
 11
494.15
 21
3.14999
  0
LINE
  8
0
 10
494.15
 20
3.14999
 11
506.85
 21
3.14999
  0
LINE
  8
0
 10
506.85
 20
3.14999
 11
506.85
 21
0.149994
  0
LINE
  8
0
 10
506.85
 20
0.149994
 11
519.25
 21
0.149994
  0
LINE
  8
0
 10
519.25
 20
0.149994
 11
519.25
 21
3.14999
  0
LINE
  8
0
 10
242.85
 20
119.45
 11
246.15
 21
119.45
  0
LINE
  8
0
 10
246.15
 20
119.45
 11
246.15
 21
81.35
  0
LINE
  8
0
 10
246.15
 20
81.35
 11
488.85
 21
81.35
  0
LINE
  8
0
 10
488.85
 20
81.35
 11
488.85
 21
93.75
  0
LINE
  8
0
 10
488.85
 20
93.75
 11
485.85
 21
93.75
  0
LINE
  8
0
 10
485.85
 20
93.75
 11
485.85
 21
106.75
  0
LINE
  8
0
 10
485.85
 20
106.75
 11
488.85
 21
106.75
  0
LINE
  8
0
 10
488.85
 20
106.75
 11
488.85
 21
119.15
  0
LINE
  8
0
 10
488.85
 20
119.15
 11
485.85
 21
119.15
  0
LINE
  8
0
 10
485.85
 20
119.15
 11
485.85
 21
132.15
  0
LINE
  8
0
 10
485.85
 20
132.15
 11
488.85
 21
132.15
  0
LINE
  8
0
 10
488.85
 20
132.15
 11
488.85
 21
144.55
  0
LINE
  8
0
 10
488.85
 20
144.55
 11
485.85
 21
144.55
  0
LINE
  8
0
 10
485.85
 20
144.55
 11
485.85
 21
157.25
  0
LINE
  8
0
 10
485.85
 20
157.25
 11
3.14999
 21
157.25
  0
LINE
  8
0
 10
3.14999
 20
157.25
 11
3.14999
 21
144.55
  0
LINE
  8
0
 10
3.14999
 20
144.55
 11
0.149994
 21
144.55
  0
LINE
  8
0
 10
0.149994
 20
144.55
 11
0.149994
 21
132.15
  0
LINE
  8
0
 10
0.149994
 20
132.15
 11
3.14999
 21
132.15
  0
LINE
  8
0
 10
3.14999
 20
132.15
 11
3.14999
 21
119.15
  0
LINE
  8
0
 10
3.14999
 20
119.15
 11
0.149994
 21
119.15
  0
LINE
  8
0
 10
0.149994
 20
119.15
 11
0.149994
 21
106.75
  0
LINE
  8
0
 10
0.149994
 20
106.75
 11
3.14999
 21
106.75
  0
LINE
  8
0
 10
3.14999
 20
106.75
 11
3.14999
 21
93.75
  0
LINE
  8
0
 10
3.14999
 20
93.75
 11
0.149994
 21
93.75
  0
LINE
  8
0
 10
0.149994
 20
93.75
 11
0.149994
 21
81.35
  0
LINE
  8
0
 10
0.149994
 20
81.35
 11
242.85
 21
81.35
  0
LINE
  8
0
 10
242.85
 20
81.35
 11
242.85
 21
119.45
  0
LINE
  8
0
 10
242.85
 20
12.85
 11
246.15
 21
12.85
  0
LINE
  8
0
 10
246.15
 20
12.85
 11
246.15
 21
0.149994
  0
LINE
  8
0
 10
246.15
 20
0.149994
 11
488.85
 21
0.149994
  0
LINE
  8
0
 10
488.85
 20
0.149994
 11
488.85
 21
12.55
  0
LINE
  8
0
 10
488.85
 20
12.55
 11
485.85
 21
12.55
  0
LINE
  8
0
 10
485.85
 20
12.55
 11
485.85
 21
25.55
  0
LINE
  8
0
 10
485.85
 20
25.55
 11
488.85
 21
25.55
  0
LINE
  8
0
 10
488.85
 20
25.55
 11
488.85
 21
37.95
  0
LINE
  8
0
 10
488.85
 20
37.95
 11
485.85
 21
37.95
  0
LINE
  8
0
 10
485.85
 20
37.95
 11
485.85
 21
50.95
  0
LINE
  8
0
 10
485.85
 20
50.95
 11
488.85
 21
50.95
  0
LINE
  8
0
 10
488.85
 20
50.95
 11
488.85
 21
63.35
  0
LINE
  8
0
 10
488.85
 20
63.35
 11
485.85
 21
63.35
  0
LINE
  8
0
 10
485.85
 20
63.35
 11
485.85
 21
76.05
  0
LINE
  8
0
 10
485.85
 20
76.05
 11
3.14999
 21
76.05
  0
LINE
  8
0
 10
3.14999
 20
76.05
 11
3.14999
 21
63.35
  0
LINE
  8
0
 10
3.14999
 20
63.35
 11
0.149994
 21
63.35
  0
LINE
  8
0
 10
0.149994
 20
63.35
 11
0.149994
 21
50.95
  0
LINE
  8
0
 10
0.149994
 20
50.95
 11
3.14999
 21
50.95
  0
LINE
  8
0
 10
3.14999
 20
50.95
 11
3.14999
 21
37.95
  0
LINE
  8
0
 10
3.14999
 20
37.95
 11
0.149994
 21
37.95
  0
LINE
  8
0
 10
0.149994
 20
37.95
 11
0.149994
 21
25.55
  0
LINE
  8
0
 10
0.149994
 20
25.55
 11
3.14999
 21
25.55
  0
LINE
  8
0
 10
3.14999
 20
25.55
 11
3.14999
 21
12.55
  0
LINE
  8
0
 10
3.14999
 20
12.55
 11
0.149994
 21
12.55
  0
LINE
  8
0
 10
0.149994
 20
12.55
 11
0.149994
 21
0.149994
  0
LINE
  8
0
 10
0.149994
 20
0.149994
 11
242.85
 21
0.149994
  0
LINE
  8
0
 10
242.85
 20
0.149994
 11
242.85
 21
12.85
  0
LINE
  8
0
 10
242.85
 20
50.65
 11
242.85
 21
63.65
  0
LINE
  8
0
 10
242.85
 20
63.65
 11
246.15
 21
63.65
  0
LINE
  8
0
 10
246.15
 20
63.65
 11
246.15
 21
50.65
  0
LINE
  8
0
 10
246.15
 20
50.65
 11
242.85
 21
50.65
  0
LINE
  8
0
 10
242.85
 20
25.25
 11
242.85
 21
38.25
  0
LINE
  8
0
 10
242.85
 20
38.25
 11
246.15
 21
38.25
  0
LINE
  8
0
 10
246.15
 20
38.25
 11
246.15
 21
25.25
  0
LINE
  8
0
 10
246.15
 20
25.25
 11
242.85
 21
25.25
  0
ENDSEC
  0
SECTION
  2
OBJECTS
  0
DICTIONARY
  0
ENDSEC
  0
EOF
